<?xml version="1.0" encoding="utf-8"?>
<!-- Generator: Adobe Illustrator 23.0.4, SVG Export Plug-In . SVG Version: 6.00 Build 0)  -->
<svg version="1.1" id="Layer_1" xmlns="http://www.w3.org/2000/svg" xmlns:xlink="http://www.w3.org/1999/xlink" x="0px" y="0px"
	 viewBox="0 0 248.8 115" style="enable-background:new 0 0 248.8 115;" xml:space="preserve">
<style type="text/css">
	.st0{fill:url(#SVGID_1_);}
	.st1{fill:url(#SVGID_2_);}
	.st2{fill:url(#SVGID_3_);}
	.st3{fill:#768FA1;}
</style>
<g>
	<g>
		
			<linearGradient id="SVGID_1_" gradientUnits="userSpaceOnUse" x1="0.7669" y1="74.1555" x2="162.5669" y2="74.1555" gradientTransform="matrix(1 0 0 -1 0 116.8111)">
			<stop  offset="0" style="stop-color:#6E8B9D"/>
			<stop  offset="0.8468" style="stop-color:#6D8C9C"/>
			<stop  offset="1" style="stop-color:#45A887"/>
		</linearGradient>
		<path class="st0" d="M147.9,60.2c-1.6,2-4.7,5.1-6.2,6.2l0,0c-7.8,5.9-21,8.8-32.6,1.7c-6.4-3.9-8.9-6.5-13-13.8
			c-0.1-0.2-8.7-16.8-12.7-24.2c-0.5-0.9-1-1.8-1.4-2.7c-1.7-3.1-3.4-6.4-5.4-9.2c-3.3-4.3-7-7.8-11.4-10.6
			c-6.8-4.4-14.6-6.8-22.7-6.8c-23,0-41.7,18.7-41.7,41.8c0,23,18.7,41.8,41.7,41.8c8.1,0,15.9-2.3,22.7-6.8l1.1-0.7v-16l-4.2,3.8
			c-5.4,4.9-12.4,7.6-19.7,7.6C26.2,72.3,13,59.1,13,42.8s13.2-29.5,29.4-29.5c7.3,0,14.3,2.7,19.7,7.6c5.2,4.7,8.5,10.4,12,16.8
			c1.4,2.5,2.8,5.4,4.2,8.4c5,10.5,11.3,23.5,22.9,31.5c3.7,2.6,8.2,4.6,12.5,5.6c3.8,0.9,7.4,1.3,10.9,1.3c17,0,30-10,36.1-21.6
			l1.9-3.7h-13.9L147.9,60.2z"/>
		
			<linearGradient id="SVGID_2_" gradientUnits="userSpaceOnUse" x1="119.3281" y1="74.6055" x2="156.6917" y2="74.6055" gradientTransform="matrix(1 0 0 -1 0 116.8111)">
			<stop  offset="0" style="stop-color:#6E8B9D"/>
			<stop  offset="1" style="stop-color:#45A887"/>
		</linearGradient>
		<polygon class="st1" points="150.2,35.9 119.4,35.9 119.4,48.5 156.7,48.5 		"/>
		
			<linearGradient id="SVGID_3_" gradientUnits="userSpaceOnUse" x1="86.1669" y1="74.0093" x2="247.7669" y2="74.0093" gradientTransform="matrix(1 0 0 -1 0 116.8111)">
			<stop  offset="0.1031" style="stop-color:#6E8B9D"/>
			<stop  offset="0.4246" style="stop-color:#45A887"/>
		</linearGradient>
		<path class="st2" d="M206,1c-16.1,0-30.9,9.5-37.7,24.1l-0.5,1.1l8.2,15.5l1.6-6.3c3.3-13,15-22.2,28.5-22.2
			c16.2,0,29.4,13.2,29.4,29.5s-13.2,29.5-29.4,29.5c-8,0-14.3-2.4-19.8-7.6c-2.7-2.6-5.1-5.4-7-8.3c-2.5-3.8-10.2-18.3-10.3-18.5
			c-1.2-2.2-2.4-4.4-3.5-6.6c-1.2-2.3-2.3-4.5-3.3-6.2l-0.2-0.3c-2.4-4.4-4.3-7.9-9.5-12.8c-7-6.7-17.4-10.7-27.7-10.9
			c-4.7-0.1-10.1,0.8-14.4,2.4c-10.6,3.8-19,11.3-23.7,21.2l-0.5,1.1L94,40.1l2.1-5.5c1.3-3.5,3.7-9.9,9.3-14.4
			c5.9-4.6,13.6-9,26.7-5.9c3.9,0.9,8.1,3.6,10.9,5.8c4.7,3.6,8.2,9.9,11.2,15.4c0.8,1.5,1.6,2.8,2.3,4.1c2,3.3,3.8,6.8,5.5,10.2
			c3.4,6.5,6.8,13.2,11.4,18.8c0.3,0.4,0.6,0.7,0.9,1.1l0.2,0.2c0.5,0.6,1.1,1.2,1.7,1.9l0.3,0.3c0.4,0.4,0.8,0.8,1.2,1.2
			c1.8,1.7,3.6,3.2,5.5,4.5c6.7,4.5,14.7,6.8,22.9,6.8c23,0,41.7-18.7,41.7-41.8C247.7,19.8,229,1,206,1z"/>
	</g>
	<g>
		<g>
			<path class="st3" d="M16.3,104.4c0.1,0,0.2,0,0.2,0.1c0.1,0.1,0.1,0.1,0.1,0.2c0,0.2,0,0.5,0,0.7c0,0.3,0,0.5,0,0.6
				c0,0.7,0,1.3,0.1,1.8s0.3,1,0.5,1.3c0.2,0.4,0.6,0.6,1,0.8c0.4,0.2,1,0.3,1.7,0.3c0.2,0,0.3,0,0.4,0s0.3,0,0.6-0.1
				c0-0.5,0-1,0-1.4s0-0.9,0-1.4v-5c0-0.1,0-0.2,0.1-0.2c0.1-0.1,0.2-0.1,0.2-0.1h1.9c0.1,0,0.2,0,0.2,0.1c0.1,0.1,0.1,0.1,0.1,0.2
				v6.7c0,0.5,0,1,0,1.5s0,1-0.1,1.5c0,0.2-0.1,0.3-0.4,0.4c-0.5,0.1-1.1,0.2-1.6,0.3c-0.5,0.1-1.1,0.1-1.7,0.1
				c-1,0-1.8-0.1-2.5-0.3c-0.7-0.2-1.3-0.5-1.9-1c-0.5-0.4-0.9-1-1.1-1.7c-0.3-0.7-0.4-1.6-0.4-2.6c0-0.1,0-0.3,0-0.5s0-0.4,0-0.7
				c0-0.2,0-0.5,0.1-0.7c0-0.2,0.1-0.5,0.1-0.6s0.1-0.2,0.1-0.3c0.1-0.1,0.1-0.1,0.3-0.1L16.3,104.4L16.3,104.4z M17.5,99.1
				c0-0.1,0-0.2,0.1-0.3c0.1-0.1,0.2-0.1,0.3-0.1h1.8c0.1,0,0.2,0,0.3,0.1c0.1,0.1,0.1,0.2,0.1,0.3v1.6c0,0.1,0,0.2-0.1,0.3
				c-0.1,0.1-0.2,0.1-0.3,0.1h-1.8c-0.1,0-0.2,0-0.3-0.1c-0.1-0.1-0.1-0.2-0.1-0.3V99.1z"/>
			<path class="st3" d="M26.3,111.9c0-0.2,0.1-0.3,0.3-0.3h1.6c0.4,0,0.8,0,1.1-0.1c0.3,0,0.6-0.1,0.8-0.2c0.2-0.1,0.4-0.2,0.5-0.4
				c0.1-0.2,0.2-0.4,0.2-0.7v-0.4h-0.9c-1.3,0-2.3-0.3-3.1-1c-0.7-0.7-1.1-1.6-1.1-2.9v-0.3c0-1.4,0.4-2.6,1.2-3.3
				c0.8-0.8,2-1.1,3.6-1.1c0.2,0,0.5,0,0.7,0c0.3,0,0.5,0,0.8,0.1c0.2,0,0.5,0.1,0.7,0.1s0.4,0.1,0.5,0.1c0.1,0.1,0.2,0.1,0.2,0.1
				s0.1,0.1,0.1,0.2v5.4H35v2.7h-1.5v0.5c-0.1,0.7-0.2,1.4-0.5,1.8c-0.3,0.5-0.6,0.8-1,1.1c-0.4,0.3-0.9,0.4-1.4,0.5
				s-1.1,0.1-1.7,0.1c-0.1,0-0.2,0-0.5,0c-0.2,0-0.4,0-0.7,0c-0.2,0-0.5,0-0.7,0s-0.4,0-0.4-0.1c-0.1,0-0.2-0.1-0.2-0.1
				c0-0.1-0.1-0.1-0.1-0.2V111.9z M28.3,105.6c0,0.6,0.1,1,0.4,1.3c0.2,0.3,0.6,0.4,1.2,0.4h1v-3.7c-0.1,0-0.3,0-0.4,0s-0.3,0-0.4,0
				c-0.6,0-1,0.2-1.3,0.5S28.3,104.9,28.3,105.6C28.3,105.5,28.3,105.6,28.3,105.6z"/>
			<path class="st3" d="M34.9,109.8c-0.1,0-0.2,0-0.4-0.1c-0.1,0-0.2-0.1-0.2-0.1v-2.3c0-0.1,0.1-0.1,0.2-0.1c0.1,0,0.2-0.1,0.4-0.1
				h2.7c0.3,0,0.4,0,0.5-0.1s0.1-0.2,0.1-0.5v-1.9c0-0.7,0-1.5,0-2.3c0-0.1,0-0.2,0.1-0.2c0.1-0.1,0.1-0.1,0.2-0.1h1.9
				c0.1,0,0.2,0,0.3,0.1s0.1,0.1,0.1,0.2c0,0.4,0,0.7,0,1s0,0.6,0,0.8c0,0.3,0,0.5,0,0.8v0.8c0,0.9,0,1.5,0,2.1c0,0.5,0,1-0.1,1.3
				c0,0.1-0.1,0.2-0.1,0.3c-0.1,0.1-0.1,0.1-0.3,0.2c-0.1,0-0.3,0.1-0.6,0.1c-0.2,0-0.5,0.1-0.8,0.1s-0.6,0-0.9,0
				c-0.3,0-0.6,0-0.8,0C37.2,109.8,34.9,109.8,34.9,109.8z M35.5,111.7c0-0.1,0-0.2,0.1-0.3c0.1-0.1,0.2-0.1,0.3-0.1h1.5
				c0.1,0,0.2,0,0.3,0.1s0.1,0.2,0.1,0.3v1.7c0,0.1,0,0.2-0.1,0.3c-0.1,0.1-0.2,0.1-0.3,0.1h-1.5c-0.1,0-0.2,0-0.3-0.1
				s-0.1-0.2-0.1-0.3V111.7z M39,111.7c0-0.1,0-0.2,0.1-0.3c0.1-0.1,0.2-0.1,0.3-0.1h1.5c0.1,0,0.2,0,0.3,0.1s0.1,0.2,0.1,0.3v1.7
				c0,0.1,0,0.2-0.1,0.3c-0.1,0.1-0.2,0.1-0.3,0.1h-1.5c-0.1,0-0.2,0-0.3-0.1s-0.1-0.2-0.1-0.3V111.7z"/>
			<path class="st3" d="M42.7,107.5c0-0.1,0-0.2,0.1-0.2c0.1-0.1,0.1-0.1,0.2-0.1h4.3V106c0-0.4-0.1-0.7-0.2-1
				c-0.1-0.3-0.3-0.6-0.5-0.8c-0.2-0.2-0.5-0.4-0.9-0.5s-0.8-0.2-1.4-0.2c0,0-0.1,0-0.2,0s-0.2,0-0.3,0s-0.2,0-0.3,0s-0.2,0-0.2,0
				c-0.2,0-0.3-0.1-0.3-0.3v-1.6c0-0.1,0-0.2,0.1-0.2c0.1-0.1,0.1-0.1,0.3-0.1c0.3-0.1,0.7-0.1,1-0.1c0.4,0,0.6,0,0.8,0
				c0.9,0,1.7,0.1,2.2,0.4c0.6,0.3,1.1,0.7,1.4,1.1c0.3,0.5,0.6,1,0.7,1.6c0.1,0.6,0.2,1.2,0.3,1.8c0,0.1,0,0.3,0,0.4s0,0.4,0,0.6
				s0,0.4,0,0.6s0,0.4,0,0.6s0,0.4,0,0.7c0,0.3,0,0.5,0,0.8c0,0.1,0,0.2-0.1,0.2c-0.1,0.1-0.2,0.1-0.3,0.1h-6.5
				c-0.1,0-0.2,0-0.2-0.1c-0.1-0.1-0.1-0.1-0.1-0.2v-2.3H42.7z"/>
			<path class="st3" d="M52.3,111.9c0-0.2,0.1-0.3,0.3-0.3h1.6c0.4,0,0.8,0,1.1-0.1c0.3,0,0.6-0.1,0.8-0.2s0.4-0.2,0.5-0.4
				c0.1-0.2,0.2-0.4,0.2-0.7v-0.4h-0.9c-1.3,0-2.3-0.3-3.1-1c-0.7-0.7-1.1-1.6-1.1-2.9v-0.3c0-1.4,0.4-2.6,1.2-3.3
				c0.8-0.8,2-1.1,3.6-1.1c0.2,0,0.5,0,0.7,0c0.3,0,0.5,0,0.8,0.1c0.2,0,0.5,0.1,0.7,0.1s0.4,0.1,0.5,0.1c0.1,0.1,0.2,0.1,0.2,0.1
				s0.1,0.1,0.1,0.2v5.4H61v2.7h-1.5v0.5c-0.1,0.7-0.2,1.4-0.5,1.8c-0.3,0.5-0.6,0.8-1,1.1c-0.4,0.3-0.9,0.4-1.4,0.5
				s-1.1,0.1-1.7,0.1c-0.1,0-0.2,0-0.5,0c-0.2,0-0.4,0-0.7,0c-0.2,0-0.5,0-0.7,0s-0.4,0-0.4-0.1c-0.1,0-0.2-0.1-0.2-0.1
				c0-0.1-0.1-0.1-0.1-0.2C52.3,113.5,52.3,111.9,52.3,111.9z M54.3,105.6c0,0.6,0.1,1,0.4,1.3c0.2,0.3,0.6,0.4,1.2,0.4h1v-3.7
				c-0.1,0-0.3,0-0.4,0s-0.3,0-0.4,0c-0.6,0-1,0.2-1.3,0.5S54.3,104.9,54.3,105.6C54.3,105.5,54.3,105.6,54.3,105.6z"/>
			<path class="st3" d="M60.3,107.3c0-0.1,0.1-0.1,0.2-0.1c0.1,0,0.2-0.1,0.4-0.1h2.2l-1.1-2.8c0-0.1-0.1-0.1-0.1-0.3
				c0-0.1,0-0.2,0-0.3l0.1-1.1c0-0.1,0-0.2,0.1-0.2c0.1-0.1,0.1-0.2,0.2-0.2c0.2-0.2,0.5-0.3,0.8-0.5c0.3-0.1,0.6-0.3,1-0.4
				c0.3-0.1,0.7-0.2,1.1-0.2c0.4-0.1,0.7-0.1,1-0.1c0.6,0,1.1,0.1,1.7,0.2c0.5,0.1,1,0.3,1.4,0.6c0.4,0.3,0.7,0.6,0.9,1.1
				c0.2,0.4,0.3,1,0.3,1.7v0.4c0,0.4-0.1,0.8-0.2,1.2s-0.3,0.7-0.6,1h1.9v2.7H60.9c-0.1,0-0.2,0-0.4-0.1c-0.1,0-0.2-0.1-0.2-0.1
				S60.3,107.3,60.3,107.3z M66.5,107.2c0.2,0,0.4-0.1,0.6-0.2s0.3-0.3,0.4-0.5s0.2-0.4,0.3-0.7c0.1-0.2,0.1-0.5,0.1-0.8v-0.1
				c0-0.6-0.2-1-0.5-1.2c-0.3-0.3-0.7-0.4-1.3-0.4c-0.2,0-0.5,0-0.8,0.1c-0.3,0-0.6,0.2-0.9,0.3l1.3,3.5
				C65.7,107.2,66.5,107.2,66.5,107.2z"/>
			<path class="st3" d="M71,107.3c0-0.1,0.1-0.1,0.2-0.1s0.2-0.1,0.4-0.1h0.5c0.2,0,0.4,0,0.6-0.1s0.2-0.2,0.2-0.5v-3.4
				c0-0.1,0-0.2,0.1-0.3c0.1-0.1,0.2-0.1,0.2-0.1h1.9c0.1,0,0.2,0,0.2,0.1c0.1,0.1,0.1,0.2,0.1,0.3v3.8c0.1,0.1,0.2,0.2,0.4,0.2
				c0.2,0,0.4,0,0.5,0h0.2c0.2,0,0.4,0,0.6-0.1s0.3-0.2,0.3-0.4v-4.1c0-0.1,0-0.2,0.1-0.2c0.1-0.1,0.2-0.1,0.2-0.1h1.9
				c0.1,0,0.2,0,0.2,0.1c0.1,0.1,0.1,0.1,0.1,0.2v4.4c0.1,0.1,0.2,0.2,0.4,0.2c0.2,0,0.3,0,0.5,0h0.1c0.1,0,0.2,0,0.3,0
				c0.1,0,0.2,0,0.3-0.1c0.1,0,0.1-0.1,0.2-0.2s0.1-0.2,0.1-0.3v-4.7c0-0.1,0-0.2,0.1-0.3c0.1-0.1,0.2-0.1,0.3-0.1h1.9
				c0.1,0,0.2,0,0.2,0.1c0.1,0.1,0.1,0.2,0.1,0.3v4.9c0,0,0.1,0.1,0.2,0.1s0.2,0.1,0.3,0.1c0.1,0,0.2,0,0.3,0c0.1,0,0.2,0,0.3,0h0.4
				v2.7h-0.2c-0.4,0-0.8,0-1.3-0.1s-0.9-0.2-1.3-0.5c-0.3,0.3-0.7,0.4-1,0.5c-0.4,0.1-0.8,0.1-1.2,0.1h-0.2c-0.4,0-0.8,0-1.1-0.1
				c-0.3-0.1-0.7-0.2-1.1-0.5c-0.3,0.2-0.6,0.4-1,0.5c-0.3,0.1-0.7,0.1-1.2,0.1h-0.2c-0.4,0-0.7,0-1.1-0.1c-0.3-0.1-0.7-0.2-1-0.5
				c-0.2,0.1-0.3,0.2-0.5,0.3c-0.2,0.1-0.4,0.1-0.6,0.2c-0.2,0-0.4,0.1-0.6,0.1s-0.4,0-0.6,0h-0.4c-0.1,0-0.2,0-0.4-0.1
				c-0.1,0-0.2-0.1-0.2-0.1v-2.1H71z"/>
			<path class="st3" d="M85.3,107.3c0-0.1,0.1-0.1,0.2-0.1s0.2-0.1,0.4-0.1h1c0.2,0,0.4,0,0.5-0.1c0.1,0,0.1-0.2,0.1-0.5v-9.7
				c0-0.1,0-0.2,0.1-0.3c0.1-0.1,0.2-0.1,0.3-0.1h2c0.1,0,0.2,0,0.2,0.1c0.1,0.1,0.1,0.2,0.1,0.3v10.1c0,0.3,0,0.7,0,1.1
				s0,0.7-0.1,1c0,0.1-0.1,0.2-0.1,0.3c-0.1,0.1-0.1,0.1-0.3,0.2c-0.1,0-0.3,0.1-0.6,0.1c-0.3,0-0.5,0.1-0.8,0.1s-0.6,0-0.9,0
				s-0.6,0-0.9,0h-0.7c-0.1,0-0.2,0-0.4-0.1c-0.1,0-0.2-0.1-0.2-0.1v-2.2H85.3z"/>
			<path class="st3" d="M92.7,96.9c0-0.1,0-0.2,0.1-0.3c0.1-0.1,0.2-0.1,0.3-0.1h2c0.1,0,0.2,0,0.3,0.1c0.1,0.1,0.1,0.2,0.1,0.3
				v12.5c0,0.1,0,0.2-0.1,0.3c-0.1,0.1-0.2,0.1-0.3,0.1h-2c-0.1,0-0.2,0-0.3-0.1c-0.1-0.1-0.1-0.2-0.1-0.3V96.9z"/>
			<path class="st3" d="M104.1,104.4c0.1,0,0.2,0,0.2,0.1c0.1,0.1,0.1,0.1,0.1,0.2c0,0.2,0,0.5,0,0.7c0,0.3,0,0.5,0,0.6
				c0,0.7,0,1.3,0.1,1.8s0.3,1,0.5,1.3s0.6,0.6,1,0.8c0.4,0.2,1,0.3,1.7,0.3c0.2,0,0.3,0,0.4,0s0.3,0,0.6-0.1c0-0.5,0-1,0-1.4
				s0-0.9,0-1.4v-5c0-0.1,0-0.2,0.1-0.2c0.1-0.1,0.2-0.1,0.2-0.1h1.9c0.1,0,0.2,0,0.2,0.1c0.1,0.1,0.1,0.1,0.1,0.2v6.7
				c0,0.5,0,1,0,1.5s0,1-0.1,1.5c0,0.2-0.1,0.3-0.4,0.4c-0.5,0.1-1.1,0.2-1.6,0.3c-0.5,0.1-1.1,0.1-1.7,0.1c-1,0-1.8-0.1-2.5-0.3
				c-0.7-0.2-1.3-0.5-1.9-1c-0.5-0.4-0.9-1-1.1-1.7c-0.3-0.7-0.4-1.6-0.4-2.6c0-0.1,0-0.3,0-0.5s0-0.4,0-0.7c0-0.2,0-0.5,0.1-0.7
				c0-0.2,0.1-0.5,0.1-0.6s0.1-0.2,0.1-0.3c0.1-0.1,0.1-0.1,0.3-0.1L104.1,104.4L104.1,104.4z M105.3,99.1c0-0.1,0-0.2,0.1-0.3
				c0.1-0.1,0.2-0.1,0.3-0.1h1.8c0.1,0,0.2,0,0.3,0.1c0.1,0.1,0.1,0.2,0.1,0.3v1.6c0,0.1,0,0.2-0.1,0.3c-0.1,0.1-0.2,0.1-0.3,0.1
				h-1.7c-0.1,0-0.2,0-0.3-0.1c-0.1-0.1-0.1-0.2-0.1-0.3v-1.6H105.3z"/>
			<path class="st3" d="M114.1,111.9c0-0.2,0.1-0.3,0.3-0.3h1.6c0.4,0,0.8,0,1.1-0.1c0.3,0,0.6-0.1,0.8-0.2c0.2-0.1,0.4-0.2,0.5-0.4
				c0.1-0.2,0.2-0.4,0.2-0.7v-0.4h-0.9c-1.3,0-2.3-0.3-3.1-1c-0.7-0.7-1.1-1.6-1.1-2.9v-0.3c0-1.4,0.4-2.6,1.2-3.3
				c0.8-0.8,2-1.1,3.6-1.1c0.2,0,0.5,0,0.7,0c0.3,0,0.5,0,0.8,0.1c0.2,0,0.5,0.1,0.7,0.1s0.4,0.1,0.5,0.1c0.1,0.1,0.2,0.1,0.2,0.1
				s0.1,0.1,0.1,0.2v5.4h1.5v2.7h-1.5v0.5c-0.1,0.7-0.2,1.4-0.5,1.8s-0.6,0.8-1,1.1c-0.4,0.3-0.9,0.4-1.4,0.5s-1.1,0.1-1.7,0.1
				c-0.1,0-0.2,0-0.5,0c-0.2,0-0.4,0-0.7,0c-0.2,0-0.5,0-0.7,0s-0.4,0-0.4-0.1c-0.1,0-0.2-0.1-0.2-0.1c0-0.1-0.1-0.1-0.1-0.2V111.9z
				 M116.1,105.6c0,0.6,0.1,1,0.4,1.3c0.2,0.3,0.6,0.4,1.2,0.4h1.1v-3.7c-0.1,0-0.3,0-0.4,0s-0.3,0-0.4,0c-0.6,0-1,0.2-1.3,0.5
				S116.2,104.9,116.1,105.6L116.1,105.6L116.1,105.6z"/>
			<path class="st3" d="M122.7,109.8c-0.1,0-0.2,0-0.4-0.1c-0.1,0-0.2-0.1-0.2-0.1v-2.3c0-0.1,0.1-0.1,0.2-0.1s0.2-0.1,0.4-0.1h2.7
				c0.3,0,0.4,0,0.5-0.1c0.1,0,0.1-0.2,0.1-0.5v-1.9c0-0.7,0-1.5,0-2.3c0-0.1,0-0.2,0.1-0.2c0.1-0.1,0.1-0.1,0.2-0.1h1.9
				c0.1,0,0.2,0,0.3,0.1c0.1,0.1,0.1,0.1,0.1,0.2c0,0.4,0,0.7,0,1s0,0.6,0,0.8c0,0.3,0,0.5,0,0.8v0.8c0,0.9,0,1.5,0,2.1
				c0,0.5,0,1-0.1,1.3c0,0.1-0.1,0.2-0.1,0.3c-0.1,0.1-0.1,0.1-0.3,0.2c-0.1,0-0.3,0.1-0.6,0.1c-0.2,0-0.5,0.1-0.8,0.1s-0.6,0-0.9,0
				s-0.6,0-0.8,0C125,109.8,122.7,109.8,122.7,109.8z M123.4,111.7c0-0.1,0-0.2,0.1-0.3c0.1-0.1,0.2-0.1,0.3-0.1h1.5
				c0.1,0,0.2,0,0.3,0.1c0.1,0.1,0.1,0.2,0.1,0.3v1.7c0,0.1,0,0.2-0.1,0.3c-0.1,0.1-0.2,0.1-0.3,0.1h-1.5c-0.1,0-0.2,0-0.3-0.1
				c-0.1-0.1-0.1-0.2-0.1-0.3V111.7z M126.9,111.7c0-0.1,0-0.2,0.1-0.3c0.1-0.1,0.2-0.1,0.3-0.1h1.5c0.1,0,0.2,0,0.3,0.1
				c0.1,0.1,0.1,0.2,0.1,0.3v1.7c0,0.1,0,0.2-0.1,0.3c-0.1,0.1-0.2,0.1-0.3,0.1h-1.5c-0.1,0-0.2,0-0.3-0.1c-0.1-0.1-0.1-0.2-0.1-0.3
				C126.9,113.4,126.9,111.7,126.9,111.7z"/>
			<path class="st3" d="M130.5,107.5c0-0.1,0-0.2,0.1-0.2c0.1-0.1,0.1-0.1,0.2-0.1h4.3V106c0-0.4-0.1-0.7-0.2-1
				c-0.1-0.3-0.3-0.6-0.5-0.8c-0.2-0.2-0.5-0.4-0.9-0.5s-0.8-0.2-1.3-0.2c0,0-0.1,0-0.2,0c-0.1,0-0.2,0-0.3,0s-0.2,0-0.3,0
				s-0.2,0-0.2,0c-0.2,0-0.3-0.1-0.3-0.3v-1.6c0-0.1,0-0.2,0.1-0.2c0.1-0.1,0.1-0.1,0.3-0.1c0.3-0.1,0.7-0.1,1-0.1
				c0.4,0,0.6,0,0.8,0c0.9,0,1.6,0.1,2.2,0.4c0.6,0.3,1,0.7,1.4,1.1c0.4,0.5,0.6,1,0.8,1.6c0.1,0.6,0.2,1.2,0.3,1.8v1.2h1v2.7h-8
				c-0.1,0-0.2,0-0.2-0.1c-0.1-0.1-0.1-0.1-0.1-0.2L130.5,107.5L130.5,107.5z M132.6,97.5c0-0.1,0-0.2,0.1-0.3
				c0.1-0.1,0.2-0.1,0.3-0.1h1.8c0.1,0,0.2,0,0.3,0.1s0.1,0.2,0.1,0.3v1.6c0,0.1,0,0.2-0.1,0.3c-0.1,0.1-0.2,0.1-0.3,0.1h-1.7
				c-0.1,0-0.2,0-0.3-0.1s-0.1-0.2-0.1-0.3v-1.6H132.6z"/>
			<path class="st3" d="M138.1,107.3c0-0.1,0.1-0.1,0.2-0.1c0.1,0,0.2-0.1,0.4-0.1h0.8c0.1,0,0.2,0,0.3,0s0.2,0,0.3-0.1
				c0.1,0,0.1-0.1,0.2-0.2c0.1-0.1,0.1-0.2,0.1-0.3v-4.1c0-0.1,0-0.2,0.1-0.2c0.1-0.1,0.2-0.1,0.3-0.1h1.9c0.1,0,0.2,0,0.2,0.1
				c0.1,0.1,0.1,0.1,0.1,0.2v4.5c0,0,0.1,0.1,0.2,0.1c0.1,0,0.2,0.1,0.3,0.1s0.2,0,0.3,0s0.2,0,0.2,0h0.5v2.7h-0.2
				c-0.5,0-1,0-1.4-0.1c-0.5-0.1-0.9-0.2-1.2-0.5c-0.2,0.1-0.3,0.2-0.6,0.3c-0.2,0.1-0.4,0.1-0.7,0.2c-0.2,0-0.4,0.1-0.7,0.1
				c-0.2,0-0.4,0-0.6,0h-0.4c-0.1,0-0.2,0-0.4-0.1c-0.1,0-0.2-0.1-0.2-0.1L138.1,107.3L138.1,107.3z M138.5,111.7
				c0-0.1,0-0.2,0.1-0.3c0.1-0.1,0.2-0.1,0.3-0.1h1.5c0.1,0,0.2,0,0.3,0.1s0.1,0.2,0.1,0.3v1.7c0,0.1,0,0.2-0.1,0.3
				c-0.1,0.1-0.2,0.1-0.3,0.1h-1.5c-0.1,0-0.2,0-0.3-0.1s-0.1-0.2-0.1-0.3V111.7z M142,111.7c0-0.1,0-0.2,0.1-0.3
				c0.1-0.1,0.2-0.1,0.3-0.1h1.5c0.1,0,0.2,0,0.3,0.1s0.1,0.2,0.1,0.3v1.7c0,0.1,0,0.2-0.1,0.3c-0.1,0.1-0.2,0.1-0.3,0.1h-1.5
				c-0.1,0-0.2,0-0.3-0.1s-0.1-0.2-0.1-0.3V111.7z"/>
			<path class="st3" d="M143.8,107.3c0-0.1,0.1-0.1,0.2-0.1c0.1,0,0.2-0.1,0.4-0.1h1.7c-0.2-0.2-0.3-0.4-0.4-0.8
				c-0.1-0.3-0.2-0.7-0.2-1.1v-0.3c0-0.7,0.1-1.2,0.3-1.7s0.6-0.9,1-1.2c0.4-0.3,0.9-0.6,1.5-0.7c0.6-0.2,1.2-0.2,1.9-0.2
				c0.2,0,0.5,0,0.8,0s0.6,0,0.8,0.1c0.3,0,0.5,0.1,0.7,0.1s0.4,0.1,0.6,0.1c0.1,0,0.2,0.1,0.2,0.1c0,0.1,0.1,0.1,0.1,0.2v5.5h1.5
				v2.7h-10.6c-0.1,0-0.2,0-0.4-0.1c-0.1,0-0.2-0.1-0.2-0.1L143.8,107.3L143.8,107.3z M150.8,107.2v-3.8c-0.3,0-0.5-0.1-0.8-0.1
				c-1.2,0-1.8,0.6-1.8,1.8v0.3c0,0.6,0.1,1.1,0.4,1.4c0.3,0.3,0.7,0.5,1.2,0.5h1V107.2z M148.3,97.5c0-0.1,0-0.2,0.1-0.3
				c0.1-0.1,0.2-0.1,0.3-0.1h1.8c0.1,0,0.2,0,0.3,0.1s0.1,0.2,0.1,0.3v1.6c0,0.1,0,0.2-0.1,0.3c-0.1,0.1-0.2,0.1-0.3,0.1h-1.7
				c-0.1,0-0.2,0-0.3-0.1s-0.1-0.2-0.1-0.3v-1.6H148.3z"/>
			<path class="st3" d="M154.3,107.3c0-0.1,0.1-0.1,0.2-0.1c0.1,0,0.2-0.1,0.4-0.1h0.8c0.1,0,0.2,0,0.3,0s0.2,0,0.3-0.1
				c0.1,0,0.1-0.1,0.2-0.2c0.1-0.1,0.1-0.2,0.1-0.3v-4.1c0-0.1,0-0.2,0.1-0.2c0.1-0.1,0.2-0.1,0.3-0.1h1.9c0.1,0,0.2,0,0.2,0.1
				c0.1,0.1,0.1,0.1,0.1,0.2v4.5c0,0,0.1,0.1,0.2,0.1c0.1,0,0.2,0.1,0.3,0.1s0.2,0,0.3,0s0.2,0,0.2,0h0.5v2.7h-0.2
				c-0.5,0-1,0-1.4-0.1c-0.5-0.1-0.9-0.2-1.2-0.5c-0.2,0.1-0.3,0.2-0.6,0.3c-0.2,0.1-0.4,0.1-0.7,0.2c-0.2,0-0.4,0.1-0.7,0.1
				c-0.2,0-0.4,0-0.6,0h-0.4c-0.1,0-0.2,0-0.4-0.1c-0.1,0-0.2-0.1-0.2-0.1L154.3,107.3L154.3,107.3z M156.5,98.4
				c0-0.1,0-0.2,0.1-0.3c0.1-0.1,0.2-0.1,0.3-0.1h1.8c0.1,0,0.2,0,0.3,0.1s0.1,0.2,0.1,0.3v1.6c0,0.1,0,0.2-0.1,0.3
				c-0.1,0.1-0.2,0.1-0.3,0.1h-1.8c-0.1,0-0.2,0-0.3-0.1s-0.1-0.2-0.1-0.3L156.5,98.4L156.5,98.4z"/>
			<path class="st3" d="M159.9,107.3c0-0.1,0.1-0.1,0.2-0.1c0.1,0,0.2-0.1,0.4-0.1h0.8c0.1,0,0.2,0,0.3,0s0.2,0,0.3-0.1
				c0.1,0,0.1-0.1,0.2-0.2c0.1-0.1,0.1-0.2,0.1-0.3v-4.1c0-0.1,0-0.2,0.1-0.2c0.1-0.1,0.2-0.1,0.3-0.1h1.9c0.1,0,0.2,0,0.2,0.1
				c0.1,0.1,0.1,0.1,0.1,0.2v4.5c0,0,0.1,0.1,0.2,0.1c0.1,0,0.2,0.1,0.3,0.1s0.2,0,0.3,0s0.2,0,0.2,0h0.5v2.7h-0.2
				c-0.5,0-1,0-1.4-0.1c-0.5-0.1-0.9-0.2-1.2-0.5c-0.2,0.1-0.3,0.2-0.6,0.3c-0.2,0.1-0.4,0.1-0.7,0.2c-0.2,0-0.4,0.1-0.7,0.1
				c-0.2,0-0.4,0-0.6,0h-0.4c-0.1,0-0.2,0-0.4-0.1c-0.1,0-0.2-0.1-0.2-0.1L159.9,107.3L159.9,107.3z M160.5,98.4
				c0-0.1,0-0.2,0.1-0.3c0.1-0.1,0.2-0.1,0.3-0.1h1.5c0.1,0,0.2,0,0.3,0.1s0.1,0.2,0.1,0.3v1.6c0,0.1,0,0.2-0.1,0.3
				c-0.1,0.1-0.2,0.1-0.3,0.1h-1.5c-0.1,0-0.2,0-0.3-0.1s-0.1-0.2-0.1-0.3V98.4z M164,98.4c0-0.1,0-0.2,0.1-0.3
				c0.1-0.1,0.2-0.1,0.3-0.1h1.5c0.1,0,0.2,0,0.3,0.1s0.1,0.2,0.1,0.3v1.6c0,0.1,0,0.2-0.1,0.3c-0.1,0.1-0.2,0.1-0.3,0.1h-1.5
				c-0.1,0-0.2,0-0.3-0.1s-0.1-0.2-0.1-0.3V98.4z"/>
			<path class="st3" d="M165.6,107.3c0-0.1,0.1-0.1,0.2-0.1c0.1,0,0.2-0.1,0.4-0.1h1c0.2,0,0.4,0,0.5-0.1c0.1,0,0.1-0.2,0.1-0.5
				v-9.7c0-0.1,0-0.2,0.1-0.3c0.1-0.1,0.2-0.1,0.3-0.1h2c0.1,0,0.2,0,0.2,0.1c0.1,0.1,0.1,0.2,0.1,0.3v10.1c0,0.3,0,0.7,0,1.1
				s0,0.7-0.1,1c0,0.1-0.1,0.2-0.1,0.3c-0.1,0.1-0.1,0.1-0.3,0.2c-0.1,0-0.3,0.1-0.6,0.1s-0.5,0.1-0.8,0.1s-0.6,0-0.9,0
				c-0.3,0-0.6,0-0.9,0h-0.7c-0.1,0-0.2,0-0.4-0.1c-0.1,0-0.2-0.1-0.2-0.1L165.6,107.3L165.6,107.3z"/>
			<path class="st3" d="M173,96.9c0-0.1,0-0.2,0.1-0.3c0.1-0.1,0.2-0.1,0.3-0.1h2c0.1,0,0.2,0,0.3,0.1s0.1,0.2,0.1,0.3v12.5
				c0,0.1,0,0.2-0.1,0.3c-0.1,0.1-0.2,0.1-0.3,0.1h-2c-0.1,0-0.2,0-0.3-0.1s-0.1-0.2-0.1-0.3V96.9z"/>
			<path class="st3" d="M182.5,109.5c-0.2,0-0.3-0.1-0.3-0.3v-1.6c0-0.2,0.1-0.3,0.3-0.3h0.7c-0.3-0.3-0.4-0.9-0.4-1.6
				c0-0.6,0.1-1.1,0.3-1.5s0.4-0.7,0.7-1c0.3-0.2,0.7-0.4,1.1-0.5s0.9-0.1,1.3-0.1c0.3,0,0.6,0,0.8,0s0.5,0.1,0.8,0.1
				c0.2,0,0.3,0.1,0.3,0.3v1.3c0,0.2-0.1,0.3-0.3,0.3c-0.3,0-0.5,0-0.6,0s-0.3,0-0.5,0c-0.6,0-1,0.1-1.3,0.3c-0.3,0.2-0.4,0.5-0.4,1
				c0,0.4,0.1,0.7,0.2,0.9c0.1,0.2,0.3,0.4,0.4,0.5h2.5c0.2,0,0.3,0.1,0.3,0.3v1.6c0,0.2-0.1,0.3-0.3,0.3L182.5,109.5L182.5,109.5z"
				/>
			<path class="st3" d="M190.7,96.9c0-0.1,0-0.2,0.1-0.3c0.1-0.1,0.2-0.1,0.3-0.1h2c0.1,0,0.2,0,0.3,0.1s0.1,0.2,0.1,0.3v9.4
				c0,0.3,0.1,0.5,0.2,0.6s0.4,0.1,0.7,0.1h0.6v2.7h-1.4c-0.4,0-0.8,0-1.1-0.1s-0.6-0.2-0.9-0.4c-0.2-0.2-0.4-0.4-0.6-0.8
				c-0.1-0.3-0.2-0.8-0.2-1.3V96.9H190.7z"/>
			<path class="st3" d="M194.2,107.3c0-0.1,0.1-0.1,0.2-0.1c0.1,0,0.2-0.1,0.4-0.1h0.5c0.2,0,0.4,0,0.6-0.1c0.2-0.1,0.2-0.2,0.2-0.5
				v-3.4c0-0.1,0-0.2,0.1-0.3c0.1-0.1,0.2-0.1,0.2-0.1h1.9c0.1,0,0.2,0,0.2,0.1c0.1,0.1,0.1,0.2,0.1,0.3v3.8
				c0.1,0.1,0.2,0.2,0.4,0.2s0.4,0,0.5,0h0.2c0.2,0,0.4,0,0.5-0.1c0.2-0.1,0.2-0.2,0.2-0.5v-4.1c0-0.1,0-0.2,0.1-0.2
				c0.1-0.1,0.2-0.1,0.2-0.1h1.9c0.1,0,0.2,0,0.2,0.1c0.1,0.1,0.1,0.1,0.1,0.2v4.4c0.1,0.1,0.2,0.2,0.4,0.2s0.4,0,0.5,0h0.3
				c0.3,0,0.4,0,0.5-0.1c0.1,0,0.1-0.2,0.1-0.5s0-0.6,0-1s0-0.8,0-1.2c0-0.4,0-0.9,0-1.3s0-0.9,0-1.3c0-0.1,0-0.2,0.1-0.2
				c0.1-0.1,0.1-0.1,0.3-0.1h1.9c0.1,0,0.2,0,0.3,0.1s0.1,0.1,0.1,0.2c0,0.7,0.1,1.4,0.1,2s0,1.2,0,1.8v1.2c0,0.3,0,0.7,0,1.1
				s0,0.7-0.1,1.1c0,0.1-0.1,0.2-0.1,0.3c-0.1,0.1-0.1,0.1-0.3,0.2c-0.5,0.1-1.2,0.2-2.1,0.2h-0.2c-0.2,0-0.4,0-0.7,0
				c-0.2,0-0.5,0-0.7-0.1c-0.2,0-0.5-0.1-0.7-0.2s-0.4-0.2-0.6-0.3c-0.3,0.2-0.6,0.4-1,0.5s-0.8,0.1-1.2,0.1h-0.2
				c-0.5,0-0.9,0-1.3-0.1c-0.4-0.1-0.7-0.2-1.1-0.5c-0.3,0.2-0.7,0.4-1.1,0.5c-0.4,0.1-0.9,0.1-1.3,0.1h-0.4c-0.1,0-0.2,0-0.4-0.1
				c-0.1,0-0.2-0.1-0.2-0.1v-2H194.2z"/>
			<path class="st3" d="M210.4,111.9c0-0.2,0.1-0.3,0.3-0.3h1.6c0.4,0,0.8,0,1.1-0.1c0.3,0,0.6-0.1,0.8-0.2s0.4-0.2,0.5-0.4
				c0.1-0.2,0.2-0.4,0.2-0.7v-0.6c-0.1,0-0.1,0.1-0.2,0.1c-0.1,0-0.2,0.1-0.4,0.1c-0.1,0-0.2,0-0.4,0c-0.1,0-0.2,0-0.3,0
				c-1.2,0-2.1-0.3-2.8-1s-1-1.6-1-2.9v-0.3c0-1.4,0.4-2.6,1.2-3.3c0.8-0.8,2-1.1,3.6-1.1c0.2,0,0.5,0,0.7,0c0.3,0,0.5,0,0.8,0.1
				c0.2,0,0.5,0.1,0.7,0.1s0.4,0.1,0.5,0.1c0.1,0.1,0.2,0.1,0.2,0.1s0.1,0.1,0.1,0.2v7.9c0,0.9-0.1,1.7-0.4,2.2
				c-0.3,0.6-0.6,1-1.1,1.3c-0.4,0.3-0.9,0.5-1.5,0.6s-1.1,0.2-1.7,0.2c-0.1,0-0.2,0-0.5,0c-0.2,0-0.4,0-0.7,0c-0.2,0-0.5,0-0.7,0
				s-0.4,0-0.4-0.1c-0.1,0-0.2-0.1-0.2-0.1c0-0.1-0.1-0.1-0.1-0.2L210.4,111.9L210.4,111.9z M212.3,99.6c-0.1,0-0.1,0-0.2-0.1
				c-0.1,0-0.1-0.1-0.1-0.2v-0.6c0-0.1,0-0.1,0.1-0.1s0.1,0,0.2,0h0.3c-0.1-0.1-0.2-0.3-0.2-0.5s-0.1-0.3-0.1-0.5
				c0-1,0.6-1.5,1.8-1.5c0.1,0,0.2,0,0.4,0s0.3,0,0.5,0.1c0.1,0,0.2,0.1,0.2,0.2V97c0,0.1-0.1,0.2-0.2,0.2h-0.6
				c-0.3,0-0.5,0-0.6,0.1s-0.2,0.3-0.2,0.5s0,0.3,0.1,0.5c0.1,0.1,0.1,0.2,0.2,0.3h1.3c0.2,0,0.3,0.1,0.3,0.2v0.6
				c0,0.1-0.1,0.2-0.3,0.2H212.3z M214.9,103.6c-0.1,0-0.3,0-0.4,0c-0.1,0-0.3,0-0.4,0c-0.6,0-1,0.2-1.4,0.5
				c-0.3,0.3-0.5,0.8-0.5,1.4v0.2c0,0.6,0.1,1,0.4,1.3c0.2,0.3,0.6,0.4,1.2,0.4c0.7,0,1.1-0.2,1.1-0.5L214.9,103.6L214.9,103.6z"/>
			<path class="st3" d="M218.9,112c0-0.2,0.1-0.3,0.3-0.3h0.4c0.2,0,0.4,0,0.6,0c0.2,0,0.3-0.1,0.4-0.2c0.1-0.1,0.2-0.2,0.3-0.4
				c0.1-0.2,0.1-0.5,0.1-0.8v-7.9c0-0.1,0-0.2,0.1-0.2c0.1-0.1,0.2-0.1,0.2-0.1h1.9c0.1,0,0.2,0,0.2,0.1c0.1,0.1,0.1,0.1,0.1,0.2
				v4.7h1.5v2.7h-1.6v0.6c0,0.4,0,0.8-0.1,1.1c-0.1,0.3-0.1,0.6-0.3,0.9c-0.3,0.5-0.6,0.9-1.1,1.1s-1.1,0.4-1.8,0.4c0,0-0.1,0-0.2,0
				s-0.2,0-0.3,0s-0.2,0-0.3,0s-0.2,0-0.3,0c-0.2,0-0.3-0.2-0.3-0.3V112H218.9z"/>
			<path class="st3" d="M224.4,107.3c0-0.1,0.1-0.1,0.2-0.1c0.1,0,0.2-0.1,0.4-0.1h1c0.2,0,0.4,0,0.5-0.1s0.1-0.2,0.1-0.5v-9.7
				c0-0.1,0-0.2,0.1-0.3c0.1-0.1,0.2-0.1,0.3-0.1h2c0.1,0,0.2,0,0.2,0.1c0.1,0.1,0.1,0.2,0.1,0.3v10.1c0,0.3,0,0.7,0,1.1
				s0,0.7-0.1,1c0,0.1-0.1,0.2-0.1,0.3c-0.1,0.1-0.1,0.1-0.3,0.2c-0.1,0-0.3,0.1-0.6,0.1s-0.5,0.1-0.8,0.1s-0.6,0-0.9,0
				c-0.3,0-0.6,0-0.9,0h-0.7c-0.1,0-0.2,0-0.4-0.1c-0.1,0-0.2-0.1-0.2-0.1L224.4,107.3L224.4,107.3z"/>
			<path class="st3" d="M231.8,96.9c0-0.1,0-0.2,0.1-0.3c0.1-0.1,0.2-0.1,0.3-0.1h2c0.1,0,0.2,0,0.3,0.1s0.1,0.2,0.1,0.3v12.5
				c0,0.1,0,0.2-0.1,0.3c-0.1,0.1-0.2,0.1-0.3,0.1h-2c-0.1,0-0.2,0-0.3-0.1s-0.1-0.2-0.1-0.3V96.9z"/>
		</g>
	</g>
</g>
</svg>
