<svg xmlns="http://www.w3.org/2000/svg" width="358" height="380" viewBox="0 0 358 380"><g transform="translate(-158 -477.479)"><rect width="356" height="380" transform="translate(158 477.479)" fill="#080a3c" opacity="0"/><g transform="translate(174.661 772.982)" opacity="0.04"><path d="M299.625,626.076a42.358,42.358,0,0,1-5.238,5.267h0a24.976,24.976,0,0,1-27.7,1.458c-5.454-3.3-7.522-5.495-11.031-11.694-.074-.142-7.412-14.227-10.8-20.458-.405-.745-.807-1.506-1.21-2.274a57.42,57.42,0,0,0-4.621-7.761,36.1,36.1,0,0,0-9.682-8.972,35.386,35.386,0,1,0,0,59.289l.962-.627V626.63l-3.541,3.2a24.972,24.972,0,1,1-.012-37.09c4.377,4.007,7.2,8.832,10.189,14.266,1.182,2.152,2.347,4.579,3.58,7.148,4.256,8.869,9.553,19.906,19.426,26.678a32.7,32.7,0,0,0,10.6,4.746,39.541,39.541,0,0,0,9.241,1.123,34.7,34.7,0,0,0,30.68-18.292l1.646-3.112h-11.84Z" transform="translate(-174.661 -575.9)" fill="#eee"/><path d="M319.671,610.709H293.456v10.7h31.728Z" transform="translate(-192.691 -581.183)" fill="#eee"/><path d="M361.993,575.953A35.547,35.547,0,0,0,329.944,596.4l-.448.959,6.955,13.1,1.351-5.328a24.974,24.974,0,1,1,24.191,31.182c-6.824,0-12.163-2.047-16.8-6.441a40.613,40.613,0,0,1-5.955-7.038c-2.145-3.245-8.669-15.484-8.761-15.653-1.04-1.841-2.015-3.752-2.957-5.6-1-1.956-1.939-3.8-2.817-5.289l-.153-.278a37.2,37.2,0,0,0-8.095-10.865,35.591,35.591,0,0,0-23.482-9.195,37.165,37.165,0,0,0-12.258,2,34.979,34.979,0,0,0-20.123,17.981l-.461.971,6.584,12.174,1.743-4.652c1.1-2.945,3.144-8.427,7.884-12.165,4.985-3.931,11.579-7.605,22.7-5.033,3.352.774,6.9,3.079,9.292,4.876,4.018,3.023,6.94,8.342,9.518,13.036.68,1.237,1.322,2.406,1.96,3.489,1.66,2.816,3.2,5.764,4.687,8.615,2.859,5.475,5.815,11.138,9.666,15.916.236.3.474.6.732.908l.166.192c.434.51.9,1.029,1.435,1.585l.276.289c.347.352.7.7,1.05,1.021a34.59,34.59,0,0,0,4.686,3.776,35.4,35.4,0,1,0,19.483-64.978Z" transform="translate(-187.633 -575.908)" fill="#eee"/></g><g transform="translate(174.661 793.954)" opacity="0.33"><path d="M262.618,611.217a29.815,29.815,0,0,1-3.687,3.707h0a17.579,17.579,0,0,1-19.5,1.026c-3.839-2.321-5.294-3.868-7.764-8.231-.052-.1-5.217-10.014-7.6-14.4-.285-.524-.568-1.06-.852-1.6a40.414,40.414,0,0,0-3.253-5.463,25.408,25.408,0,0,0-6.815-6.315,24.907,24.907,0,1,0,0,41.731l.677-.441v-9.624l-2.493,2.249a17.577,17.577,0,1,1-.008-26.106c3.081,2.82,5.071,6.216,7.172,10.041.832,1.515,1.652,3.223,2.52,5.031,3,6.242,6.724,14.011,13.673,18.778a23.013,23.013,0,0,0,7.457,3.34,27.83,27.83,0,0,0,6.5.791,24.421,24.421,0,0,0,21.594-12.875l1.159-2.19h-8.334Z" transform="translate(-174.661 -575.9)" fill="#eee"/><path d="M311.908,610.709H293.456v7.532h22.332Z" transform="translate(-222.532 -589.927)" fill="#eee"/><path d="M331.826,575.952a25.02,25.02,0,0,0-22.557,14.393l-.315.675,4.895,9.219.951-3.75a17.578,17.578,0,1,1,17.027,21.947A16.2,16.2,0,0,1,320,613.9a28.584,28.584,0,0,1-4.192-4.954c-1.51-2.284-6.1-10.9-6.166-11.018-.732-1.3-1.418-2.641-2.081-3.942-.7-1.377-1.365-2.677-1.983-3.723l-.108-.2a26.184,26.184,0,0,0-5.7-7.647,25.051,25.051,0,0,0-16.528-6.472,26.159,26.159,0,0,0-8.628,1.405,24.62,24.62,0,0,0-14.163,12.656l-.324.684,4.634,8.569,1.227-3.275c.774-2.073,2.213-5.932,5.549-8.562,3.509-2.767,8.15-5.353,15.978-3.543a19.258,19.258,0,0,1,6.541,3.432c2.828,2.128,4.885,5.872,6.7,9.176.479.87.931,1.693,1.38,2.456,1.168,1.982,2.251,4.057,3.3,6.064a67.428,67.428,0,0,0,6.8,11.2c.166.212.334.423.515.639l.117.135c.306.359.636.724,1.01,1.115l.194.2c.244.248.494.49.739.719a24.345,24.345,0,0,0,3.3,2.658,24.919,24.919,0,1,0,13.713-45.735Z" transform="translate(-209.102 -575.92)" fill="#eee"/></g><g opacity="0.18"><rect width="3" height="3" rx="1.5" transform="translate(196 535.411)" fill="#fff"/><rect width="3" height="3" rx="1.5" transform="translate(215 583.411)" fill="#fff"/><rect width="3" height="3" rx="1.5" transform="translate(236 555.411)" fill="#fff"/><rect width="3" height="3" rx="1.5" transform="translate(255 603.411)" fill="#fff"/></g><g transform="translate(86 36)" opacity="0.18"><rect width="3" height="3" rx="1.5" transform="translate(196 535.411)" fill="#fff"/><rect width="3" height="3" rx="1.5" transform="translate(215 583.411)" fill="#fff"/><rect width="3" height="3" rx="1.5" transform="translate(236 555.411)" fill="#fff"/><rect width="3" height="3" rx="1.5" transform="translate(255 603.411)" fill="#fff"/></g><g transform="translate(-25 113)" opacity="0.18"><rect width="3" height="3" rx="1.5" transform="translate(196 535.411)" fill="#fff"/><rect width="3" height="3" rx="1.5" transform="translate(215 583.411)" fill="#fff"/><rect width="3" height="3" rx="1.5" transform="translate(236 555.411)" fill="#fff"/><rect width="3" height="3" rx="1.5" transform="translate(255 603.411)" fill="#fff"/></g><g transform="translate(119 -40)" opacity="0.18"><rect width="3" height="3" rx="1.5" transform="translate(196 535.411)" fill="#fff"/><rect width="3" height="3" rx="1.5" transform="translate(215 583.411)" fill="#fff"/><rect width="3" height="3" rx="1.5" transform="translate(236 555.411)" fill="#fff"/><rect width="3" height="3" rx="1.5" transform="translate(255 603.411)" fill="#fff"/></g><g transform="translate(205 -4)" opacity="0.18"><rect width="3" height="3" rx="1.5" transform="translate(196 535.411)" fill="#fff"/><rect width="3" height="3" rx="1.5" transform="translate(215 583.411)" fill="#fff"/><rect width="3" height="3" rx="1.5" transform="translate(236 555.411)" fill="#fff"/><rect width="3" height="3" rx="1.5" transform="translate(255 603.411)" fill="#fff"/></g><g transform="translate(94 73)" opacity="0.18"><rect width="3" height="3" rx="1.5" transform="translate(196 535.411)" fill="#fff"/><rect width="3" height="3" rx="1.5" transform="translate(215 583.411)" fill="#fff"/><rect width="3" height="3" rx="1.5" transform="translate(236 555.411)" fill="#fff"/><rect width="3" height="3" rx="1.5" transform="translate(255 603.411)" fill="#fff"/></g><g transform="translate(172 97)" opacity="0.18"><rect width="3" height="3" rx="1.5" transform="translate(196 535.411)" fill="#fff"/><rect width="3" height="3" rx="1.5" transform="translate(215 583.411)" fill="#fff"/><rect width="3" height="3" rx="1.5" transform="translate(236 555.411)" fill="#fff"/><rect width="3" height="3" rx="1.5" transform="translate(255 603.411)" fill="#fff"/></g><g transform="translate(258 133)" opacity="0.18"><rect width="3" height="3" rx="1.5" transform="translate(196 535.411)" fill="#fff"/><rect width="3" height="3" rx="1.5" transform="translate(215 583.411)" fill="#fff"/><rect width="3" height="3" rx="1.5" transform="translate(236 555.411)" fill="#fff"/><rect width="3" height="3" rx="1.5" transform="translate(255 603.411)" fill="#fff"/></g><g transform="translate(147 210)" opacity="0.18"><rect width="3" height="3" rx="1.5" transform="translate(196 535.411)" fill="#fff"/><rect width="3" height="3" rx="1.5" transform="translate(215 583.411)" fill="#fff"/><rect width="3" height="3" rx="1.5" transform="translate(236 555.411)" fill="#fff"/><rect width="3" height="3" rx="1.5" transform="translate(255 603.411)" fill="#fff"/></g><g transform="translate(52 124)" opacity="0.18"><rect width="3" height="3" rx="1.5" transform="translate(196 535.411)" fill="#fff"/><rect width="3" height="3" rx="1.5" transform="translate(215 583.411)" fill="#fff"/><rect width="3" height="3" rx="1.5" transform="translate(236 555.411)" fill="#fff"/><rect width="3" height="3" rx="1.5" transform="translate(255 603.411)" fill="#fff"/></g><g transform="translate(138 160)" opacity="0.18"><rect width="3" height="3" rx="1.5" transform="translate(196 535.411)" fill="#fff"/><rect width="3" height="3" rx="1.5" transform="translate(215 583.411)" fill="#fff"/><rect width="3" height="3" rx="1.5" transform="translate(236 555.411)" fill="#fff"/><rect width="3" height="3" rx="1.5" transform="translate(255 603.411)" fill="#fff"/></g><g transform="translate(27 237)" opacity="0.18"><rect width="3" height="3" rx="1.5" transform="translate(196 535.411)" fill="#fff"/><rect width="3" height="3" rx="1.5" transform="translate(215 583.411)" fill="#fff"/><rect width="3" height="3" rx="1.5" transform="translate(236 555.411)" fill="#fff"/><rect width="3" height="3" rx="1.5" transform="translate(255 603.411)" fill="#fff"/></g></g></svg>