<svg xmlns="http://www.w3.org/2000/svg" width="356" height="172" viewBox="0 0 356 172"><g transform="translate(-158 -477.479)"><rect width="356" height="172" transform="translate(158 477.479)" fill="#fff" opacity="0"/><g transform="translate(174.661 597.036)"><path d="M243.062,603.365a23.188,23.188,0,0,1-2.867,2.883h0a13.671,13.671,0,0,1-15.164.8c-2.985-1.8-4.117-3.008-6.038-6.4-.04-.078-4.057-7.788-5.914-11.2-.222-.408-.442-.825-.663-1.245a31.43,31.43,0,0,0-2.529-4.248,19.759,19.759,0,0,0-5.3-4.911,19.369,19.369,0,1,0,0,32.453l.527-.343v-7.484l-1.938,1.749a13.669,13.669,0,1,1-.007-20.3,28.77,28.77,0,0,1,5.577,7.809c.647,1.178,1.285,2.506,1.96,3.913,2.329,4.855,5.229,10.9,10.633,14.6a17.9,17.9,0,0,0,5.8,2.6,21.643,21.643,0,0,0,5.058.615A18.991,18.991,0,0,0,248.99,604.64l.9-1.7H243.41Z" transform="translate(-174.661 -575.9)" fill="#eee"/><path d="M307.805,610.709H293.456v5.857h17.367Z" transform="translate(-238.3 -594.548)" fill="#eee"/><path d="M315.886,575.951a19.457,19.457,0,0,0-17.542,11.193l-.245.525,3.807,7.169.74-2.917a13.67,13.67,0,1,1,13.241,17.068,12.594,12.594,0,0,1-9.2-3.525,22.229,22.229,0,0,1-3.26-3.853c-1.174-1.776-4.745-8.475-4.8-8.568-.569-1.008-1.1-2.054-1.619-3.065-.546-1.071-1.061-2.082-1.542-2.895l-.084-.152a20.362,20.362,0,0,0-4.431-5.947,19.482,19.482,0,0,0-12.853-5.033,20.345,20.345,0,0,0-6.71,1.093,19.146,19.146,0,0,0-11.014,9.842l-.252.532,3.6,6.664.954-2.547A14.617,14.617,0,0,1,269,584.877c2.729-2.151,6.338-4.163,12.426-2.755a14.975,14.975,0,0,1,5.086,2.669c2.2,1.655,3.8,4.566,5.21,7.136.372.677.724,1.317,1.073,1.91.909,1.541,1.751,3.155,2.566,4.716a52.435,52.435,0,0,0,5.291,8.712c.129.165.26.329.4.5l.091.1c.238.279.494.563.786.867l.151.158c.19.193.384.381.575.559a18.925,18.925,0,0,0,2.565,2.067,19.379,19.379,0,1,0,10.664-35.567Z" transform="translate(-220.447 -575.927)" fill="#eee"/></g></g></svg>