<svg xmlns="http://www.w3.org/2000/svg" xmlns:xlink="http://www.w3.org/1999/xlink" width="247.275" height="112.831" viewBox="0 0 247.275 112.831"><defs><linearGradient id="a" y1="0.5" x2="1" y2="0.5" gradientUnits="objectBoundingBox"><stop offset="0" stop-color="#6e8b9d"/><stop offset="0.847" stop-color="#6d8c9c"/><stop offset="1" stop-color="#45a887"/></linearGradient><linearGradient id="b" y1="0.5" x2="1" y2="0.5" gradientUnits="objectBoundingBox"><stop offset="0" stop-color="#6e8b9d"/><stop offset="1" stop-color="#45a887"/></linearGradient><linearGradient id="c" y1="0.5" x2="1" y2="0.5" gradientUnits="objectBoundingBox"><stop offset="0" stop-color="#6e8b9d"/><stop offset="0.333" stop-color="#45a887"/></linearGradient></defs><g transform="translate(-174.661 -152.676)"><path d="M321.985,211.829a49.81,49.81,0,0,1-6.175,6.209h0a29.446,29.446,0,0,1-32.661,1.719c-6.43-3.888-8.868-6.478-13.005-13.786-.087-.167-8.738-16.773-12.737-24.119-.478-.878-.951-1.777-1.427-2.681a67.631,67.631,0,0,0-5.448-9.15,42.54,42.54,0,0,0-11.415-10.577,41.718,41.718,0,1,0,0,69.9l1.134-.74V212.483l-4.175,3.767a29.441,29.441,0,1,1-.014-43.726c5.16,4.723,8.493,10.411,12.012,16.819,1.394,2.537,2.767,5.4,4.221,8.427,5.017,10.455,11.262,23.468,22.9,31.452a38.571,38.571,0,0,0,12.491,5.6,46.666,46.666,0,0,0,10.9,1.324,40.906,40.906,0,0,0,36.169-21.565l1.941-3.669H322.735Z" fill="url(#a)"/><path d="M324.362,187.485H293.456V200.1h37.405Z" fill="url(#b)"/><path d="M380.219,152.729a41.907,41.907,0,0,0-37.783,24.108l-.528,1.13,8.2,15.442,1.593-6.282a29.442,29.442,0,1,1,28.519,36.76c-8.045,0-14.339-2.412-19.81-7.592a47.842,47.842,0,0,1-7.021-8.3c-2.529-3.824-10.22-18.253-10.328-18.453-1.226-2.17-2.375-4.423-3.486-6.6-1.176-2.306-2.286-4.484-3.321-6.236l-.18-.327a43.857,43.857,0,0,0-9.543-12.809,41.955,41.955,0,0,0-27.683-10.84,43.844,43.844,0,0,0-14.452,2.353,41.242,41.242,0,0,0-23.723,21.2l-.543,1.145,7.762,14.353,2.055-5.485c1.3-3.472,3.707-9.935,9.295-14.341,5.877-4.634,13.651-8.966,26.763-5.934,3.952.913,8.138,3.63,10.955,5.749,4.737,3.564,8.182,9.835,11.221,15.368.8,1.459,1.559,2.837,2.311,4.114,1.957,3.32,3.771,6.795,5.526,10.157,3.37,6.455,6.856,13.13,11.395,18.764.278.355.559.708.863,1.07l.2.226c.512.6,1.065,1.212,1.692,1.868l.325.341c.409.415.828.819,1.238,1.2a40.752,40.752,0,0,0,5.524,4.452,41.739,41.739,0,1,0,22.969-76.6Z" fill="url(#c)"/><path d="M190.281,255.961a.337.337,0,0,1,.233.086.247.247,0,0,1,.078.224c-.024.242-.038.489-.044.741s-.008.46-.008.621a10.106,10.106,0,0,0,.138,1.774,3.262,3.262,0,0,0,.508,1.31,2.291,2.291,0,0,0,1.034.81,4.53,4.53,0,0,0,1.715.276c.16,0,.309,0,.448-.009s.338-.026.6-.06q.018-.794.018-1.43v-6.325a.3.3,0,0,1,.111-.233.378.378,0,0,1,.25-.094h1.948a.347.347,0,0,1,.241.094.306.306,0,0,1,.1.233v6.738q0,.725-.017,1.516c-.011.529-.029,1.017-.051,1.465q0,.293-.38.4a13.264,13.264,0,0,1-1.611.276,15.57,15.57,0,0,1-1.68.086,9.576,9.576,0,0,1-2.524-.3,4.593,4.593,0,0,1-1.853-.974,4.162,4.162,0,0,1-1.145-1.732,7.516,7.516,0,0,1-.388-2.576c0-.126.006-.3.016-.517s.027-.448.044-.689.04-.483.069-.724.06-.453.094-.637a.552.552,0,0,1,.113-.259.347.347,0,0,1,.266-.086Zm1.206-5.307a.371.371,0,0,1,.121-.285.417.417,0,0,1,.293-.112h1.757a.369.369,0,0,1,.268.112.39.39,0,0,1,.112.285v1.636a.365.365,0,0,1-.112.267.382.382,0,0,1-.284.113H191.9a.4.4,0,0,1-.3-.113.358.358,0,0,1-.113-.267Z" fill="#768fa1"/><path d="M200.293,263.457a.274.274,0,0,1,.31-.31h1.637a9.3,9.3,0,0,0,1.146-.061,2.46,2.46,0,0,0,.784-.215,1.013,1.013,0,0,0,.457-.431,1.808,1.808,0,0,0,.181-.689v-.414h-.931a4.453,4.453,0,0,1-3.084-.99,3.728,3.728,0,0,1-1.1-2.921v-.293a4.275,4.275,0,0,1,1.25-3.317,5.184,5.184,0,0,1,3.627-1.146c.218,0,.459.008.724.026s.517.037.758.06.466.051.673.086a2.4,2.4,0,0,1,.482.121,1.276,1.276,0,0,1,.241.146.252.252,0,0,1,.069.2v5.359h1.5v2.671h-1.551v.534a4.45,4.45,0,0,1-.517,1.835,3.126,3.126,0,0,1-1.043,1.112,4.008,4.008,0,0,1-1.429.543,9.293,9.293,0,0,1-1.663.146h-.465q-.328,0-.681-.017l-.673-.035a2.272,2.272,0,0,1-.438-.051.3.3,0,0,1-.207-.12.431.431,0,0,1-.052-.225Zm1.964-6.376a1.9,1.9,0,0,0,.353,1.258,1.5,1.5,0,0,0,1.2.413h1.051V255.1c-.127-.011-.258-.02-.4-.025s-.271-.009-.4-.009a1.743,1.743,0,0,0-1.343.5,1.913,1.913,0,0,0-.466,1.361Z" fill="#768fa1"/><path d="M208.874,261.337a1.429,1.429,0,0,1-.353-.051c-.132-.035-.2-.081-.2-.138v-2.292c0-.057.067-.1.2-.138a1.39,1.39,0,0,1,.353-.052h2.653a1.26,1.26,0,0,0,.509-.068c.086-.046.129-.2.129-.466V256.2q0-1.1-.034-2.291a.314.314,0,0,1,.1-.233.336.336,0,0,1,.25-.1h1.9a.387.387,0,0,1,.284.1.393.393,0,0,1,.113.233c.01.355.019.68.025.973s.012.569.018.827.007.52.007.784v.81q0,1.275-.016,2.059c-.012.523-.034.951-.07,1.284a.833.833,0,0,1-.111.293.519.519,0,0,1-.285.19,4.776,4.776,0,0,1-.577.094q-.371.043-.81.069c-.293.017-.6.029-.9.034s-.592.009-.845.009Zm.672,1.844a.369.369,0,0,1,.121-.284.412.412,0,0,1,.292-.112h1.5a.444.444,0,0,1,.3.112.358.358,0,0,1,.13.284v1.654a.321.321,0,0,1-.138.25.456.456,0,0,1-.293.112h-1.5a.412.412,0,0,1-.292-.112.334.334,0,0,1-.121-.25Zm3.5,0a.35.35,0,0,1,.138-.284.452.452,0,0,1,.293-.112h1.5a.413.413,0,0,1,.293.112.372.372,0,0,1,.121.284v1.654a.338.338,0,0,1-.121.25.413.413,0,0,1-.293.112h-1.5a.452.452,0,0,1-.293-.112.321.321,0,0,1-.138-.25Z" fill="#768fa1"/><path d="M216.731,258.994a.306.306,0,0,1,.1-.233.344.344,0,0,1,.241-.1H221.4l-.034-1.223a4.175,4.175,0,0,0-.181-1.008,1.806,1.806,0,0,0-.483-.775,2.3,2.3,0,0,0-.879-.5,4.31,4.31,0,0,0-1.352-.181h-.483c-.1,0-.2,0-.3.008a2.146,2.146,0,0,0-.233.026c-.207,0-.31-.092-.31-.275v-1.62a.4.4,0,0,1,.086-.25.35.35,0,0,1,.258-.129,8.543,8.543,0,0,1,1.034-.112c.357-.018.621-.026.793-.026a5.188,5.188,0,0,1,2.241.422,3.8,3.8,0,0,1,1.4,1.112,4.313,4.313,0,0,1,.749,1.559,9.262,9.262,0,0,1,.276,1.766c0,.115,0,.259.008.431s.012.356.018.551.009.394.009.6v.56q0,.242-.009.663c-.006.282-.021.532-.043.75a.3.3,0,0,1-.1.233.418.418,0,0,1-.293.094h-6.5a.36.36,0,0,1-.241-.086.277.277,0,0,1-.1-.224Z" fill="#768fa1"/><path d="M226.347,263.457a.273.273,0,0,1,.309-.31h1.638a9.271,9.271,0,0,0,1.145-.061,2.459,2.459,0,0,0,.785-.215,1.013,1.013,0,0,0,.457-.431,1.808,1.808,0,0,0,.18-.689v-.414h-.93a4.451,4.451,0,0,1-3.084-.99,3.725,3.725,0,0,1-1.1-2.921v-.293a4.275,4.275,0,0,1,1.25-3.317,5.184,5.184,0,0,1,3.627-1.146c.218,0,.459.008.724.026s.516.037.758.06.465.051.672.086a2.416,2.416,0,0,1,.483.121,1.276,1.276,0,0,1,.241.146.251.251,0,0,1,.068.2v5.359h1.5v2.671h-1.55v.534a4.48,4.48,0,0,1-.517,1.835,3.126,3.126,0,0,1-1.043,1.112,4.006,4.006,0,0,1-1.43.543,9.285,9.285,0,0,1-1.663.146H228.4q-.327,0-.68-.017l-.673-.035a2.3,2.3,0,0,1-.439-.051.308.308,0,0,1-.207-.12.431.431,0,0,1-.051-.225Zm1.964-6.376a1.9,1.9,0,0,0,.353,1.258,1.5,1.5,0,0,0,1.2.413h1.052V255.1c-.127-.011-.259-.02-.4-.025s-.271-.009-.4-.009a1.747,1.747,0,0,0-1.344.5,1.917,1.917,0,0,0-.465,1.361Z" fill="#768fa1"/><path d="M234.376,258.856c0-.057.066-.1.2-.138a1.4,1.4,0,0,1,.354-.052h2.153l-1.068-2.783a.5.5,0,0,1-.086-.266,1.249,1.249,0,0,1,0-.3l.052-1.117a.456.456,0,0,1,.112-.249,1.553,1.553,0,0,1,.25-.232,4.524,4.524,0,0,1,.792-.455,7.3,7.3,0,0,1,.982-.37,8.109,8.109,0,0,1,1.06-.241,6.715,6.715,0,0,1,1.043-.086,7.923,7.923,0,0,1,1.672.172,3.836,3.836,0,0,1,1.386.584,2.931,2.931,0,0,1,.94,1.083,3.633,3.633,0,0,1,.345,1.667v.412a3.965,3.965,0,0,1-.207,1.22,2.27,2.27,0,0,1-.552.962h1.878v2.671H234.928a1.437,1.437,0,0,1-.354-.051q-.2-.053-.2-.138Zm6.187-.121a1.1,1.1,0,0,0,.628-.18,1.435,1.435,0,0,0,.44-.483,2.524,2.524,0,0,0,.259-.672,3.383,3.383,0,0,0,.086-.75v-.137a1.519,1.519,0,0,0-.466-1.233,1.961,1.961,0,0,0-1.292-.388,6.506,6.506,0,0,0-.845.069,2.472,2.472,0,0,0-.913.311l1.327,3.463Z" fill="#768fa1"/><path d="M244.991,258.856c0-.057.067-.1.2-.138a1.4,1.4,0,0,1,.354-.052h.5a1.914,1.914,0,0,0,.56-.077c.166-.052.25-.21.25-.474v-3.36a.336.336,0,0,1,.112-.259.356.356,0,0,1,.249-.1h1.879a.329.329,0,0,1,.241.1.355.355,0,0,1,.1.259v3.774a.608.608,0,0,0,.413.2,3.493,3.493,0,0,0,.5.044h.189a1.726,1.726,0,0,0,.552-.087q.258-.086.258-.447v-4.1a.293.293,0,0,1,.112-.233.377.377,0,0,1,.25-.095h1.895a.379.379,0,0,1,.25.095.293.293,0,0,1,.112.233v4.394a.5.5,0,0,0,.353.2,3.069,3.069,0,0,0,.526.044h.137a2.529,2.529,0,0,0,.293-.018.947.947,0,0,0,.277-.069.477.477,0,0,0,.2-.154.482.482,0,0,0,.077-.293v-4.722a.347.347,0,0,1,.1-.258.351.351,0,0,1,.258-.1h1.948a.332.332,0,0,1,.241.1.353.353,0,0,1,.1.258v4.928a.377.377,0,0,0,.191.113,2.244,2.244,0,0,0,.293.068,2.908,2.908,0,0,0,.309.035c.1.005.19.008.259.008H260v2.671h-.172a7.74,7.74,0,0,1-1.266-.12,3.6,3.6,0,0,1-1.285-.466,2.367,2.367,0,0,1-1.05.483,6.638,6.638,0,0,1-1.19.1h-.154a4.83,4.83,0,0,1-1.112-.12,3.57,3.57,0,0,1-1.06-.466,2.5,2.5,0,0,1-.965.466,5.289,5.289,0,0,1-1.188.12h-.173a4.9,4.9,0,0,1-1.06-.112,3.025,3.025,0,0,1-1.043-.474,1.99,1.99,0,0,1-.542.3,4.612,4.612,0,0,1-.612.181,3.776,3.776,0,0,1-.62.086c-.207.011-.4.017-.569.017h-.4a1.437,1.437,0,0,1-.354-.051c-.131-.035-.2-.081-.2-.138Z" fill="#768fa1"/><path d="M259.311,258.856c0-.057.066-.1.2-.138a1.4,1.4,0,0,1,.353-.052h1.051a1.267,1.267,0,0,0,.5-.068c.092-.046.138-.2.138-.466v-9.65a.35.35,0,0,1,.1-.258.354.354,0,0,1,.259-.1h1.982a.334.334,0,0,1,.241.1.354.354,0,0,1,.1.258v10.064c0,.344-.009.7-.026,1.059s-.043.71-.077,1.043a.854.854,0,0,1-.113.293.516.516,0,0,1-.284.19,4.756,4.756,0,0,1-.594.094c-.258.029-.538.052-.836.069s-.609.029-.93.034-.609.009-.862.009h-.655a1.436,1.436,0,0,1-.353-.051q-.2-.053-.2-.138Z" fill="#768fa1"/><path d="M266.72,248.482a.372.372,0,0,1,.094-.258.347.347,0,0,1,.268-.1h1.965a.354.354,0,0,1,.361.362v12.493a.358.358,0,0,1-.1.25.337.337,0,0,1-.258.112h-1.965a.333.333,0,0,1-.268-.112.382.382,0,0,1-.094-.25Z" fill="#768fa1"/><path d="M278.2,255.961a.337.337,0,0,1,.233.086.247.247,0,0,1,.078.224c-.024.242-.038.489-.044.741s-.008.46-.008.621a10.106,10.106,0,0,0,.138,1.774,3.276,3.276,0,0,0,.508,1.31,2.29,2.29,0,0,0,1.034.81,4.53,4.53,0,0,0,1.715.276c.16,0,.309,0,.448-.009s.338-.026.6-.06q.018-.794.018-1.43v-6.325a.3.3,0,0,1,.111-.233.38.38,0,0,1,.25-.094h1.948a.347.347,0,0,1,.241.094.306.306,0,0,1,.1.233v6.738q0,.725-.017,1.516c-.011.529-.029,1.017-.051,1.465q0,.293-.38.4a13.263,13.263,0,0,1-1.611.276,15.57,15.57,0,0,1-1.68.086,9.576,9.576,0,0,1-2.524-.3,4.593,4.593,0,0,1-1.853-.974,4.162,4.162,0,0,1-1.145-1.732,7.516,7.516,0,0,1-.388-2.576c0-.126.006-.3.016-.517s.027-.448.044-.689.04-.483.069-.724.06-.453.1-.637a.542.542,0,0,1,.112-.259.347.347,0,0,1,.266-.086Zm1.206-5.307a.371.371,0,0,1,.121-.285.419.419,0,0,1,.293-.112h1.757a.369.369,0,0,1,.268.112.39.39,0,0,1,.112.285v1.636a.365.365,0,0,1-.112.267.382.382,0,0,1-.284.113h-1.741a.4.4,0,0,1-.3-.113.358.358,0,0,1-.113-.267Z" fill="#768fa1"/><path d="M288.208,263.457a.274.274,0,0,1,.31-.31h1.637a9.288,9.288,0,0,0,1.146-.061,2.46,2.46,0,0,0,.784-.215,1.013,1.013,0,0,0,.457-.431,1.807,1.807,0,0,0,.181-.689v-.414h-.931a4.453,4.453,0,0,1-3.084-.99,3.728,3.728,0,0,1-1.1-2.921v-.293a4.275,4.275,0,0,1,1.25-3.317,5.185,5.185,0,0,1,3.627-1.146c.218,0,.459.008.724.026s.517.037.758.06.466.051.673.086a2.4,2.4,0,0,1,.482.121,1.244,1.244,0,0,1,.241.146.252.252,0,0,1,.069.2v5.359h1.5v2.671h-1.551v.534a4.45,4.45,0,0,1-.517,1.835,3.126,3.126,0,0,1-1.043,1.112,4.008,4.008,0,0,1-1.429.543,9.293,9.293,0,0,1-1.663.146h-.465q-.328,0-.681-.017l-.673-.035a2.271,2.271,0,0,1-.438-.051.3.3,0,0,1-.207-.12.431.431,0,0,1-.052-.225Zm1.964-6.376a1.9,1.9,0,0,0,.353,1.258,1.5,1.5,0,0,0,1.2.413h1.051V255.1c-.127-.011-.258-.02-.4-.025s-.271-.009-.4-.009a1.744,1.744,0,0,0-1.343.5,1.913,1.913,0,0,0-.466,1.361Z" fill="#768fa1"/><path d="M296.789,261.337a1.429,1.429,0,0,1-.353-.051c-.132-.035-.2-.081-.2-.138v-2.292c0-.057.067-.1.2-.138a1.39,1.39,0,0,1,.353-.052h2.653a1.26,1.26,0,0,0,.509-.068c.086-.046.129-.2.129-.466V256.2q0-1.1-.034-2.291a.314.314,0,0,1,.1-.233.336.336,0,0,1,.25-.1h1.9a.387.387,0,0,1,.284.1.393.393,0,0,1,.113.233c.01.355.019.68.025.973s.012.569.018.827.007.52.007.784v.81q0,1.275-.016,2.059c-.012.523-.034.951-.07,1.284a.833.833,0,0,1-.111.293.519.519,0,0,1-.285.19,4.777,4.777,0,0,1-.577.094q-.371.043-.81.069c-.293.017-.594.029-.9.034s-.592.009-.845.009Zm.672,1.844a.369.369,0,0,1,.121-.284.412.412,0,0,1,.292-.112h1.5a.444.444,0,0,1,.3.112.358.358,0,0,1,.13.284v1.654a.321.321,0,0,1-.138.25.456.456,0,0,1-.293.112h-1.5a.412.412,0,0,1-.292-.112.334.334,0,0,1-.121-.25Zm3.5,0a.35.35,0,0,1,.138-.284.453.453,0,0,1,.293-.112h1.5a.413.413,0,0,1,.293.112.373.373,0,0,1,.121.284v1.654a.338.338,0,0,1-.121.25.413.413,0,0,1-.293.112h-1.5a.453.453,0,0,1-.293-.112.321.321,0,0,1-.138-.25Z" fill="#768fa1"/><path d="M304.646,258.994a.306.306,0,0,1,.1-.233.344.344,0,0,1,.241-.1H309.3l-.034-1.223a4.225,4.225,0,0,0-.181-1.008,1.9,1.9,0,0,0-.466-.775,2.161,2.161,0,0,0-.852-.5,4.18,4.18,0,0,0-1.328-.181h-.491c-.109,0-.218,0-.327.008a2.227,2.227,0,0,0-.25.026c-.207,0-.31-.092-.31-.275v-1.62a.4.4,0,0,1,.086-.25.35.35,0,0,1,.258-.129,8.543,8.543,0,0,1,1.034-.112c.357-.018.621-.026.793-.026a5.078,5.078,0,0,1,2.214.422,3.935,3.935,0,0,1,1.4,1.1,4.162,4.162,0,0,1,.758,1.551,9.184,9.184,0,0,1,.276,1.766l.034,1.223h1.034v2.671h-7.961a.36.36,0,0,1-.241-.086.277.277,0,0,1-.1-.224Zm2.034-9.978a.371.371,0,0,1,.121-.284.417.417,0,0,1,.293-.112h1.757a.368.368,0,0,1,.267.112.389.389,0,0,1,.112.284v1.638a.368.368,0,0,1-.112.267.389.389,0,0,1-.284.112h-1.74a.409.409,0,0,1-.3-.112.364.364,0,0,1-.112-.267Z" fill="#768fa1"/><path d="M312.263,258.856c0-.057.066-.1.2-.138a1.4,1.4,0,0,1,.353-.052h.81a2.538,2.538,0,0,0,.293-.017.923.923,0,0,0,.275-.069.445.445,0,0,0,.2-.164.522.522,0,0,0,.078-.3v-4.136a.32.32,0,0,1,.094-.233.362.362,0,0,1,.267-.094h1.947a.348.348,0,0,1,.242.094.306.306,0,0,1,.1.233v4.463a.359.359,0,0,0,.173.113,1.673,1.673,0,0,0,.267.068,2.637,2.637,0,0,0,.284.035c.092.005.173.008.241.008h.534v2.671H318.4a9.242,9.242,0,0,1-1.438-.112,2.62,2.62,0,0,1-1.2-.474,2.215,2.215,0,0,1-.56.285,4.952,4.952,0,0,1-.655.181,5.35,5.35,0,0,1-.672.094q-.336.025-.646.026h-.414a1.436,1.436,0,0,1-.353-.051q-.2-.053-.2-.138Zm.4,4.325a.369.369,0,0,1,.121-.284.413.413,0,0,1,.293-.112h1.5a.443.443,0,0,1,.3.112.358.358,0,0,1,.13.284v1.654a.321.321,0,0,1-.138.25.456.456,0,0,1-.293.112h-1.5a.413.413,0,0,1-.293-.112.334.334,0,0,1-.121-.25Zm3.5,0a.35.35,0,0,1,.138-.284.454.454,0,0,1,.293-.112h1.5a.413.413,0,0,1,.293.112.373.373,0,0,1,.121.284v1.654a.338.338,0,0,1-.121.25.413.413,0,0,1-.293.112h-1.5a.454.454,0,0,1-.293-.112.321.321,0,0,1-.138-.25Z" fill="#768fa1"/><path d="M317.932,258.856c0-.057.066-.1.2-.138a1.4,1.4,0,0,1,.353-.052h1.706a2.165,2.165,0,0,1-.414-.755,3.562,3.562,0,0,1-.155-1.118v-.275a4.127,4.127,0,0,1,.345-1.744,3.371,3.371,0,0,1,.973-1.245,4.154,4.154,0,0,1,1.508-.739,7.278,7.278,0,0,1,1.931-.241c.241,0,.5.008.783.026s.555.037.819.06.511.055.741.094.414.078.551.112a.444.444,0,0,1,.25.138.374.374,0,0,1,.061.223v5.464H329.1v2.671H318.483a1.436,1.436,0,0,1-.353-.051q-.2-.053-.2-.138Zm7-.1v-3.825a6.45,6.45,0,0,0-.844-.052,1.585,1.585,0,0,0-1.81,1.775v.259a2.149,2.149,0,0,0,.379,1.37,1.474,1.474,0,0,0,1.224.473ZM322.464,249a.373.373,0,0,1,.12-.284.416.416,0,0,1,.293-.112h1.758a.364.364,0,0,1,.267.112.385.385,0,0,1,.112.284v1.638a.364.364,0,0,1-.112.267.388.388,0,0,1-.284.111h-1.741a.408.408,0,0,1-.3-.111.364.364,0,0,1-.112-.267Z" fill="#768fa1"/><path d="M328.408,258.856c0-.057.067-.1.2-.138a1.4,1.4,0,0,1,.354-.052h.81a2.551,2.551,0,0,0,.293-.017.931.931,0,0,0,.275-.069.443.443,0,0,0,.2-.164.514.514,0,0,0,.078-.3v-4.136a.321.321,0,0,1,.1-.233.359.359,0,0,1,.267-.094h1.947a.343.343,0,0,1,.241.094.307.307,0,0,1,.1.233v4.463a.356.356,0,0,0,.172.113,1.7,1.7,0,0,0,.267.068,2.668,2.668,0,0,0,.284.035c.092.005.173.008.241.008h.535v2.671h-.224a9.255,9.255,0,0,1-1.439-.112,2.629,2.629,0,0,1-1.2-.474,2.208,2.208,0,0,1-.559.285,4.968,4.968,0,0,1-.656.181,5.335,5.335,0,0,1-.671.094q-.336.025-.647.026h-.413a1.437,1.437,0,0,1-.354-.051c-.131-.035-.2-.081-.2-.138Zm2.24-8.944a.368.368,0,0,1,.122-.284.415.415,0,0,1,.293-.112h1.756a.369.369,0,0,1,.268.112.389.389,0,0,1,.112.284v1.638a.368.368,0,0,1-.112.267.389.389,0,0,1-.284.112h-1.74a.409.409,0,0,1-.3-.112.365.365,0,0,1-.113-.267Z" fill="#768fa1"/><path d="M334.078,258.856c0-.057.067-.1.2-.138a1.4,1.4,0,0,1,.354-.052h.809a2.526,2.526,0,0,0,.293-.017.93.93,0,0,0,.276-.069.443.443,0,0,0,.2-.164.514.514,0,0,0,.078-.3v-4.136a.317.317,0,0,1,.1-.233.359.359,0,0,1,.267-.094h1.947a.344.344,0,0,1,.241.094.307.307,0,0,1,.1.233v4.463a.356.356,0,0,0,.172.113,1.674,1.674,0,0,0,.267.068,2.668,2.668,0,0,0,.284.035c.092.005.173.008.241.008h.535v2.671h-.224a9.246,9.246,0,0,1-1.439-.112,2.624,2.624,0,0,1-1.2-.474,2.208,2.208,0,0,1-.559.285,4.968,4.968,0,0,1-.656.181,5.325,5.325,0,0,1-.672.094c-.223.017-.439.026-.646.026h-.413a1.437,1.437,0,0,1-.354-.051c-.131-.035-.2-.081-.2-.138Zm.6-8.944a.373.373,0,0,1,.12-.284.417.417,0,0,1,.293-.112h1.5a.45.45,0,0,1,.3.112.364.364,0,0,1,.129.284v1.638a.336.336,0,0,1-.138.267.462.462,0,0,1-.293.112h-1.5a.417.417,0,0,1-.293-.112.354.354,0,0,1-.12-.267Zm3.5,0a.354.354,0,0,1,.137-.284.462.462,0,0,1,.293-.112h1.5a.417.417,0,0,1,.293.112.374.374,0,0,1,.121.284v1.638a.355.355,0,0,1-.121.267.417.417,0,0,1-.293.112h-1.5a.462.462,0,0,1-.293-.112.337.337,0,0,1-.137-.267Z" fill="#768fa1"/><path d="M339.747,258.856c0-.057.066-.1.2-.138a1.4,1.4,0,0,1,.354-.052h1.051a1.267,1.267,0,0,0,.5-.068c.091-.046.137-.2.137-.466v-9.65a.347.347,0,0,1,.1-.258.351.351,0,0,1,.259-.1h1.981a.33.33,0,0,1,.241.1.351.351,0,0,1,.1.258v10.064c0,.344-.009.7-.027,1.059s-.043.71-.077,1.043a.833.833,0,0,1-.112.293.523.523,0,0,1-.284.19,4.778,4.778,0,0,1-.6.094q-.387.043-.836.069c-.3.017-.608.029-.93.034s-.609.009-.862.009H340.3a1.437,1.437,0,0,1-.354-.051q-.2-.053-.2-.138Z" fill="#768fa1"/><path d="M347.156,248.482a.368.368,0,0,1,.1-.258.344.344,0,0,1,.268-.1h1.964a.355.355,0,0,1,.362.362v12.493a.355.355,0,0,1-.1.25.334.334,0,0,1-.258.112h-1.964a.33.33,0,0,1-.268-.112.377.377,0,0,1-.1-.25Z" fill="#768fa1"/><path d="M356.651,260.975c-.2,0-.293-.091-.293-.275v-1.6a.259.259,0,0,1,.293-.293h.69a2.683,2.683,0,0,1-.38-1.585,3.645,3.645,0,0,1,.276-1.516,2.5,2.5,0,0,1,.749-.965,2.866,2.866,0,0,1,1.112-.509,6.018,6.018,0,0,1,1.344-.146,6.392,6.392,0,0,1,.792.043c.231.029.483.072.759.129.207.034.31.132.31.293v1.344q0,.294-.276.276l-.637-.026c-.161-.006-.317-.009-.465-.009a2.359,2.359,0,0,0-1.31.276,1.178,1.178,0,0,0-.4,1.034,1.762,1.762,0,0,0,.207.9,1.165,1.165,0,0,0,.447.474l2.551-.018a.259.259,0,0,1,.293.293v1.6c0,.184-.1.275-.293.275Z" fill="#768fa1"/><path d="M364.922,248.482a.354.354,0,0,1,.362-.362h1.965a.346.346,0,0,1,.267.1.368.368,0,0,1,.094.258v9.409c0,.333.07.546.207.638a1.217,1.217,0,0,0,.655.137h.637v2.671H367.68a6.2,6.2,0,0,1-1.129-.094,2.017,2.017,0,0,1-.87-.371,1.754,1.754,0,0,1-.561-.784,3.747,3.747,0,0,1-.2-1.336Z" fill="#768fa1"/><path d="M368.42,258.856c0-.057.066-.1.2-.138a1.4,1.4,0,0,1,.354-.052h.5a1.907,1.907,0,0,0,.559-.077c.166-.052.25-.21.25-.474v-3.36a.334.334,0,0,1,.113-.259.356.356,0,0,1,.249-.1h1.878a.333.333,0,0,1,.242.1.354.354,0,0,1,.1.259v3.774a.61.61,0,0,0,.413.2,3.517,3.517,0,0,0,.5.044h.207a1.8,1.8,0,0,0,.542-.078q.25-.078.25-.456v-4.1a.291.291,0,0,1,.113-.233.377.377,0,0,1,.25-.095h1.9a.379.379,0,0,1,.25.095.3.3,0,0,1,.111.233v4.394a.538.538,0,0,0,.388.2,3.617,3.617,0,0,0,.543.044h.293a1.237,1.237,0,0,0,.509-.069q.129-.069.129-.465V256.03q0-.638-.009-1.3t-.025-1.25a.338.338,0,0,1,.086-.223.316.316,0,0,1,.258-.1h1.9a.386.386,0,0,1,.284.1.317.317,0,0,1,.1.232q.051,1.12.06,2.034t.008,1.792v1.189q0,.518-.008,1.051t-.06,1.052a.856.856,0,0,1-.113.275.594.594,0,0,1-.284.207,8.075,8.075,0,0,1-2.119.224h-.173q-.311,0-.654-.017a6.043,6.043,0,0,1-.7-.078,5.458,5.458,0,0,1-.69-.164,2.226,2.226,0,0,1-.611-.293,2.557,2.557,0,0,1-1.017.457,5.43,5.43,0,0,1-1.172.129h-.172a6.033,6.033,0,0,1-1.275-.12,2.944,2.944,0,0,1-1.052-.466,2.654,2.654,0,0,1-1.127.466,7.236,7.236,0,0,1-1.285.12h-.43a1.437,1.437,0,0,1-.354-.051q-.2-.053-.2-.138Z" fill="#768fa1"/><path d="M384.549,263.457a.273.273,0,0,1,.309-.31H386.5a9.3,9.3,0,0,0,1.146-.061,2.46,2.46,0,0,0,.784-.215,1.017,1.017,0,0,0,.457-.43,1.638,1.638,0,0,0,.163-.689l.017-.637a.656.656,0,0,1-.25.111,2.663,2.663,0,0,1-.353.068,3.713,3.713,0,0,1-.37.034c-.121.006-.222.009-.3.009a3.523,3.523,0,0,1-3.843-3.911v-.293a4.275,4.275,0,0,1,1.25-3.317,5.184,5.184,0,0,1,3.627-1.146c.218,0,.459.008.724.026s.517.037.758.06.466.051.673.086a2.4,2.4,0,0,1,.482.121.925.925,0,0,1,.249.146.27.27,0,0,1,.061.2V261.2a5.173,5.173,0,0,1-.4,2.222,3.307,3.307,0,0,1-1.068,1.31,3.775,3.775,0,0,1-1.508.62,9.563,9.563,0,0,1-1.724.155H386.6q-.328,0-.681-.017l-.673-.035a2.271,2.271,0,0,1-.438-.051.3.3,0,0,1-.207-.12.421.421,0,0,1-.052-.225Zm1.912-12.356a.325.325,0,0,1-.181-.051.175.175,0,0,1-.077-.155v-.638a.122.122,0,0,1,.077-.12.446.446,0,0,1,.181-.035h.345a1.642,1.642,0,0,1-.2-.474,2.164,2.164,0,0,1-.059-.508q0-1.482,1.758-1.482c.1,0,.243.006.422.017a2.442,2.442,0,0,1,.507.087c.116.023.173.08.173.172v.586c0,.115-.075.172-.224.172h-.637a1.08,1.08,0,0,0-.612.138.567.567,0,0,0-.2.5,1.2,1.2,0,0,0,.086.475.582.582,0,0,0,.241.284h1.259c.172,0,.258.057.258.172v.655c0,.138-.086.206-.258.206Zm2.654,4c-.127-.011-.256-.02-.387-.025s-.268-.009-.406-.009a1.734,1.734,0,0,0-1.352.5,1.954,1.954,0,0,0-.457,1.367v.157a1.915,1.915,0,0,0,.353,1.263,1.5,1.5,0,0,0,1.2.416q1.053,0,1.052-.45Z" fill="#768fa1"/><path d="M393.112,263.494c0-.209.11-.313.328-.313h.4a4.29,4.29,0,0,0,.559-.034.815.815,0,0,0,.422-.181.871.871,0,0,0,.259-.43,2.785,2.785,0,0,0,.086-.783v-7.774a.294.294,0,0,1,.112-.233.38.38,0,0,1,.25-.094h1.948a.347.347,0,0,1,.241.094.309.309,0,0,1,.1.233v4.687h1.5v2.671h-1.568v.638a7.617,7.617,0,0,1-.077,1.146,3.011,3.011,0,0,1-.268.887,2.477,2.477,0,0,1-1.093,1.146,3.944,3.944,0,0,1-1.785.353h-.214c-.1,0-.205,0-.32-.008s-.226-.015-.336-.026-.2-.023-.266-.035a.314.314,0,0,1-.277-.347Z" fill="#768fa1"/><path d="M398.627,258.856c0-.057.066-.1.2-.138a1.4,1.4,0,0,1,.354-.052h1.05a1.261,1.261,0,0,0,.5-.068c.092-.046.138-.2.138-.466v-9.65a.347.347,0,0,1,.1-.258.351.351,0,0,1,.258-.1h1.982a.33.33,0,0,1,.241.1.351.351,0,0,1,.1.258v10.064c0,.344-.009.7-.027,1.059s-.043.71-.077,1.043a.834.834,0,0,1-.112.293.523.523,0,0,1-.284.19,4.778,4.778,0,0,1-.6.094q-.387.043-.836.069c-.3.017-.608.029-.93.034s-.609.009-.862.009h-.654a1.437,1.437,0,0,1-.354-.051q-.2-.053-.2-.138Z" fill="#768fa1"/><path d="M406.036,248.482a.368.368,0,0,1,.1-.258.343.343,0,0,1,.267-.1h1.965a.355.355,0,0,1,.362.362v12.493a.359.359,0,0,1-.1.25.334.334,0,0,1-.258.112H406.4a.329.329,0,0,1-.267-.112.377.377,0,0,1-.1-.25Z" fill="#768fa1"/></g></svg>