<svg xmlns="http://www.w3.org/2000/svg" width="247.275" height="83.488" viewBox="0 0 247.275 83.488"><g transform="translate(-174.661 -575.9)"><path d="M321.985,635.054a49.949,49.949,0,0,1-6.175,6.209h0a29.444,29.444,0,0,1-32.661,1.719c-6.43-3.887-8.868-6.478-13.005-13.786-.087-.167-8.738-16.773-12.737-24.119-.478-.878-.951-1.776-1.427-2.681a67.695,67.695,0,0,0-5.448-9.15,42.555,42.555,0,0,0-11.415-10.577,41.718,41.718,0,1,0,0,69.9l1.134-.739v-16.12l-4.175,3.767a29.44,29.44,0,1,1-.014-43.726c5.16,4.724,8.493,10.412,12.012,16.819,1.394,2.537,2.767,5.4,4.221,8.427,5.017,10.456,11.262,23.468,22.9,31.452a38.551,38.551,0,0,0,12.491,5.6,46.62,46.62,0,0,0,10.9,1.324A40.9,40.9,0,0,0,334.753,637.8l1.941-3.669H322.735Z" fill="#eee"/><path d="M324.362,610.709H293.456v12.615h37.405Z" fill="#eee"/><path d="M380.219,575.953a41.907,41.907,0,0,0-37.783,24.108l-.528,1.13,8.2,15.442,1.593-6.282a29.442,29.442,0,1,1,28.519,36.761c-8.045,0-14.339-2.413-19.81-7.593a47.871,47.871,0,0,1-7.021-8.3c-2.529-3.825-10.22-18.254-10.328-18.454-1.226-2.17-2.375-4.423-3.486-6.6-1.176-2.306-2.286-4.484-3.321-6.235l-.18-.328a43.857,43.857,0,0,0-9.543-12.809,41.96,41.96,0,0,0-27.683-10.84,43.819,43.819,0,0,0-14.452,2.354,41.237,41.237,0,0,0-23.723,21.2l-.543,1.145L267.891,615l2.055-5.485c1.3-3.472,3.707-9.935,9.295-14.341,5.877-4.634,13.651-8.966,26.763-5.934,3.952.913,8.138,3.63,10.955,5.749,4.737,3.564,8.182,9.835,11.221,15.369.8,1.458,1.559,2.836,2.311,4.113,1.957,3.32,3.771,6.8,5.526,10.157,3.37,6.455,6.856,13.131,11.395,18.764.278.355.559.708.863,1.07l.2.226c.512.6,1.065,1.213,1.692,1.868l.325.341c.409.415.828.82,1.238,1.2a40.748,40.748,0,0,0,5.524,4.452,41.739,41.739,0,1,0,22.969-76.6Z" fill="#eee"/></g></svg>