<svg xmlns="http://www.w3.org/2000/svg" width="247.275" height="112.832" viewBox="0 0 247.275 112.832"><g transform="translate(-174.661 -575.9)"><path d="M321.985,635.054a49.949,49.949,0,0,1-6.175,6.209h0a29.444,29.444,0,0,1-32.661,1.719c-6.43-3.887-8.868-6.478-13.005-13.786-.087-.167-8.738-16.773-12.737-24.119-.478-.878-.951-1.776-1.427-2.681a67.695,67.695,0,0,0-5.448-9.15,42.555,42.555,0,0,0-11.415-10.577,41.718,41.718,0,1,0,0,69.9l1.134-.739v-16.12l-4.175,3.767a29.44,29.44,0,1,1-.014-43.726c5.16,4.724,8.493,10.412,12.012,16.819,1.394,2.537,2.767,5.4,4.221,8.427,5.017,10.456,11.262,23.468,22.9,31.452a38.551,38.551,0,0,0,12.491,5.6,46.62,46.62,0,0,0,10.9,1.324A40.9,40.9,0,0,0,334.753,637.8l1.941-3.669H322.735Z" fill="#fff"/><path d="M324.362,610.709H293.456v12.615h37.405Z" fill="#fff"/><path d="M380.219,575.953a41.907,41.907,0,0,0-37.783,24.108l-.528,1.13,8.2,15.442,1.593-6.282a29.442,29.442,0,1,1,28.519,36.761c-8.045,0-14.339-2.413-19.81-7.593a47.871,47.871,0,0,1-7.021-8.3c-2.529-3.825-10.22-18.254-10.328-18.454-1.226-2.17-2.375-4.423-3.486-6.6-1.176-2.306-2.286-4.484-3.321-6.235l-.18-.328a43.857,43.857,0,0,0-9.543-12.809,41.96,41.96,0,0,0-27.683-10.84,43.819,43.819,0,0,0-14.452,2.354,41.237,41.237,0,0,0-23.723,21.2l-.543,1.145L267.891,615l2.055-5.485c1.3-3.472,3.707-9.935,9.295-14.341,5.877-4.634,13.651-8.966,26.763-5.934,3.952.913,8.138,3.63,10.955,5.749,4.737,3.564,8.182,9.835,11.221,15.369.8,1.458,1.559,2.836,2.311,4.113,1.957,3.32,3.771,6.8,5.526,10.157,3.37,6.455,6.856,13.131,11.395,18.764.278.355.559.708.863,1.07l.2.226c.512.6,1.065,1.213,1.692,1.868l.325.341c.409.415.828.82,1.238,1.2a40.748,40.748,0,0,0,5.524,4.452,41.739,41.739,0,1,0,22.969-76.6Z" fill="#fff"/><path d="M190.281,679.185a.334.334,0,0,1,.233.087.245.245,0,0,1,.078.223c-.024.242-.038.489-.044.742s-.008.459-.008.62a10.1,10.1,0,0,0,.138,1.774,3.266,3.266,0,0,0,.508,1.311,2.288,2.288,0,0,0,1.034.809,4.51,4.51,0,0,0,1.715.276c.16,0,.309,0,.448-.009s.338-.025.6-.06q.018-.792.018-1.43V677.2a.3.3,0,0,1,.111-.232.379.379,0,0,1,.25-.1h1.948a.348.348,0,0,1,.241.1.3.3,0,0,1,.1.232v6.739q0,.723-.017,1.515c-.011.529-.029,1.017-.051,1.465,0,.2-.127.327-.38.4a13.452,13.452,0,0,1-1.611.275,15.571,15.571,0,0,1-1.68.087,9.576,9.576,0,0,1-2.524-.3,4.58,4.58,0,0,1-1.853-.973,4.172,4.172,0,0,1-1.145-1.733,7.512,7.512,0,0,1-.388-2.576c0-.126.006-.3.016-.517s.027-.448.044-.689.04-.482.069-.724.06-.453.094-.637a.543.543,0,0,1,.113-.258.343.343,0,0,1,.266-.087Zm1.206-5.307a.368.368,0,0,1,.121-.284.413.413,0,0,1,.293-.112h1.757a.365.365,0,0,1,.268.112.386.386,0,0,1,.112.284v1.637a.367.367,0,0,1-.112.267.385.385,0,0,1-.284.112H191.9a.4.4,0,0,1-.3-.112.36.36,0,0,1-.113-.267Z" fill="#fff"/><path d="M200.293,686.681a.274.274,0,0,1,.31-.31h1.637a9.316,9.316,0,0,0,1.146-.06,2.457,2.457,0,0,0,.784-.216,1.008,1.008,0,0,0,.457-.431,1.8,1.8,0,0,0,.181-.689v-.413h-.931a4.448,4.448,0,0,1-3.084-.991,3.725,3.725,0,0,1-1.1-2.921v-.293a4.276,4.276,0,0,1,1.25-3.317,5.184,5.184,0,0,1,3.627-1.146q.327,0,.724.026t.758.06c.241.023.466.052.673.087a2.41,2.41,0,0,1,.482.12,1.277,1.277,0,0,1,.241.146.252.252,0,0,1,.069.2v5.359h1.5v2.671h-1.551v.534a4.459,4.459,0,0,1-.517,1.835,3.122,3.122,0,0,1-1.043,1.111,3.972,3.972,0,0,1-1.429.543,9.206,9.206,0,0,1-1.663.147h-.465q-.328,0-.681-.018t-.673-.034a2.331,2.331,0,0,1-.438-.052.3.3,0,0,1-.207-.12.427.427,0,0,1-.052-.224Zm1.964-6.376a1.9,1.9,0,0,0,.353,1.258,1.5,1.5,0,0,0,1.2.414h1.051v-3.653c-.127-.011-.258-.02-.4-.026s-.271-.009-.4-.009a1.743,1.743,0,0,0-1.343.5,1.916,1.916,0,0,0-.466,1.362Z" fill="#fff"/><path d="M208.874,684.562a1.435,1.435,0,0,1-.353-.052c-.132-.034-.2-.08-.2-.138V682.08c0-.057.067-.1.2-.137a1.39,1.39,0,0,1,.353-.052h2.653a1.238,1.238,0,0,0,.509-.069c.086-.046.129-.2.129-.465v-1.931c0-.734-.012-1.5-.034-2.291a.314.314,0,0,1,.1-.233.336.336,0,0,1,.25-.095h1.9a.386.386,0,0,1,.284.095.393.393,0,0,1,.113.233c.01.356.019.681.025.974s.012.568.018.827.007.519.007.783v.811q0,1.273-.016,2.058c-.012.524-.034.951-.07,1.284a.825.825,0,0,1-.111.293.518.518,0,0,1-.285.19,4.942,4.942,0,0,1-.577.1c-.247.029-.517.051-.81.069s-.6.028-.9.034-.592.009-.845.009Zm.672,1.844a.37.37,0,0,1,.121-.285.412.412,0,0,1,.292-.112h1.5a.445.445,0,0,1,.3.112.358.358,0,0,1,.13.285v1.654a.321.321,0,0,1-.138.25.461.461,0,0,1-.293.111h-1.5a.416.416,0,0,1-.292-.111.334.334,0,0,1-.121-.25Zm3.5,0a.351.351,0,0,1,.138-.285.453.453,0,0,1,.293-.112h1.5a.413.413,0,0,1,.293.112.373.373,0,0,1,.121.285v1.654a.338.338,0,0,1-.121.25.416.416,0,0,1-.293.111h-1.5a.457.457,0,0,1-.293-.111.321.321,0,0,1-.138-.25Z" fill="#fff"/><path d="M216.731,682.218a.3.3,0,0,1,.1-.232.34.34,0,0,1,.241-.1H221.4l-.034-1.224a4.158,4.158,0,0,0-.181-1.007,1.8,1.8,0,0,0-.483-.776,2.3,2.3,0,0,0-.879-.5,4.311,4.311,0,0,0-1.352-.181h-.483c-.1,0-.2,0-.3.008a1.9,1.9,0,0,0-.233.027c-.207,0-.31-.092-.31-.276v-1.62a.4.4,0,0,1,.086-.25.357.357,0,0,1,.258-.129,8.747,8.747,0,0,1,1.034-.112c.357-.018.621-.025.793-.025a5.189,5.189,0,0,1,2.241.421,3.806,3.806,0,0,1,1.4,1.112,4.32,4.32,0,0,1,.749,1.559,9.258,9.258,0,0,1,.276,1.767c0,.114,0,.258.008.431s.012.355.018.55.009.394.009.595v.561q0,.24-.009.663c-.006.281-.021.531-.043.749a.3.3,0,0,1-.1.233.418.418,0,0,1-.293.1h-6.5a.36.36,0,0,1-.241-.086.281.281,0,0,1-.1-.225Z" fill="#fff"/><path d="M226.347,686.681a.273.273,0,0,1,.309-.31h1.638a9.287,9.287,0,0,0,1.145-.06,2.456,2.456,0,0,0,.785-.216,1.008,1.008,0,0,0,.457-.431,1.8,1.8,0,0,0,.18-.689v-.413h-.93a4.447,4.447,0,0,1-3.084-.991,3.722,3.722,0,0,1-1.1-2.921v-.293a4.276,4.276,0,0,1,1.25-3.317,5.184,5.184,0,0,1,3.627-1.146q.327,0,.724.026t.758.06q.361.035.672.087a2.423,2.423,0,0,1,.483.12,1.277,1.277,0,0,1,.241.146.252.252,0,0,1,.068.2v5.359h1.5v2.671h-1.55v.534a4.49,4.49,0,0,1-.517,1.835,3.122,3.122,0,0,1-1.043,1.111,3.97,3.97,0,0,1-1.43.543,9.2,9.2,0,0,1-1.663.147H228.4q-.327,0-.68-.018c-.237-.011-.46-.022-.673-.034a2.357,2.357,0,0,1-.439-.052.308.308,0,0,1-.207-.12.427.427,0,0,1-.051-.224Zm1.964-6.376a1.9,1.9,0,0,0,.353,1.258,1.5,1.5,0,0,0,1.2.414h1.052v-3.653c-.127-.011-.259-.02-.4-.026s-.271-.009-.4-.009a1.747,1.747,0,0,0-1.344.5,1.92,1.92,0,0,0-.465,1.362Z" fill="#fff"/><path d="M234.376,682.08c0-.057.066-.1.2-.137a1.4,1.4,0,0,1,.354-.052h2.153l-1.068-2.784a.5.5,0,0,1-.086-.266,1.25,1.25,0,0,1,0-.3l.052-1.117a.456.456,0,0,1,.112-.249,1.6,1.6,0,0,1,.25-.232,4.585,4.585,0,0,1,.792-.455,7.163,7.163,0,0,1,.982-.369,8.119,8.119,0,0,1,1.06-.242,6.843,6.843,0,0,1,1.043-.086,7.927,7.927,0,0,1,1.672.172,3.871,3.871,0,0,1,1.386.584,2.939,2.939,0,0,1,.94,1.083,3.636,3.636,0,0,1,.345,1.667v.412a3.964,3.964,0,0,1-.207,1.22,2.28,2.28,0,0,1-.552.963h1.878v2.671H234.928a1.442,1.442,0,0,1-.354-.052q-.2-.051-.2-.138Zm6.187-.121a1.088,1.088,0,0,0,.628-.18,1.425,1.425,0,0,0,.44-.483,2.526,2.526,0,0,0,.259-.672,3.384,3.384,0,0,0,.086-.75v-.137a1.519,1.519,0,0,0-.466-1.233,1.96,1.96,0,0,0-1.292-.387,6.339,6.339,0,0,0-.845.069,2.454,2.454,0,0,0-.913.31l1.327,3.463Z" fill="#fff"/><path d="M244.991,682.08c0-.057.067-.1.2-.137a1.4,1.4,0,0,1,.354-.052h.5a1.881,1.881,0,0,0,.56-.078c.166-.052.25-.209.25-.474v-3.36a.333.333,0,0,1,.112-.258.356.356,0,0,1,.249-.1h1.879a.329.329,0,0,1,.241.1.351.351,0,0,1,.1.258v3.774a.612.612,0,0,0,.413.2,3.475,3.475,0,0,0,.5.043h.189a1.753,1.753,0,0,0,.552-.086q.258-.086.258-.448v-4.1a.294.294,0,0,1,.112-.233.376.376,0,0,1,.25-.094h1.895a.378.378,0,0,1,.25.094.294.294,0,0,1,.112.233v4.394a.5.5,0,0,0,.353.2,3.07,3.07,0,0,0,.526.043h.137a2.514,2.514,0,0,0,.293-.017.977.977,0,0,0,.277-.069.487.487,0,0,0,.2-.155.48.48,0,0,0,.077-.293v-4.721a.355.355,0,0,1,.362-.363h1.948a.332.332,0,0,1,.241.1.354.354,0,0,1,.1.259v4.927a.378.378,0,0,0,.191.113,2.247,2.247,0,0,0,.293.069,2.938,2.938,0,0,0,.309.034c.1.006.19.009.259.009H260v2.671h-.172a7.641,7.641,0,0,1-1.266-.121,3.618,3.618,0,0,1-1.285-.465,2.365,2.365,0,0,1-1.05.482,6.64,6.64,0,0,1-1.19.1h-.154a4.773,4.773,0,0,1-1.112-.121,3.59,3.59,0,0,1-1.06-.465,2.508,2.508,0,0,1-.965.465,5.228,5.228,0,0,1-1.188.121h-.173a4.9,4.9,0,0,1-1.06-.112,3.064,3.064,0,0,1-1.043-.474,2.017,2.017,0,0,1-.542.3,4.763,4.763,0,0,1-.612.18,3.668,3.668,0,0,1-.62.086c-.207.012-.4.018-.569.018h-.4a1.442,1.442,0,0,1-.354-.052c-.131-.034-.2-.08-.2-.138Z" fill="#fff"/><path d="M259.311,682.08c0-.057.066-.1.2-.137a1.4,1.4,0,0,1,.353-.052h1.051a1.245,1.245,0,0,0,.5-.069c.092-.046.138-.2.138-.465v-9.651a.346.346,0,0,1,.1-.257.351.351,0,0,1,.259-.1h1.982a.33.33,0,0,1,.241.1.35.35,0,0,1,.1.257V681.77q0,.517-.026,1.059c-.017.363-.043.71-.077,1.043a.845.845,0,0,1-.113.293.515.515,0,0,1-.284.19,4.909,4.909,0,0,1-.594.1c-.258.029-.538.051-.836.069s-.609.028-.93.034-.609.009-.862.009h-.655a1.441,1.441,0,0,1-.353-.052q-.2-.051-.2-.138Z" fill="#fff"/><path d="M266.72,671.706a.368.368,0,0,1,.094-.257.344.344,0,0,1,.268-.1h1.965a.354.354,0,0,1,.361.361V684.2a.361.361,0,0,1-.1.25.337.337,0,0,1-.258.112h-1.965a.332.332,0,0,1-.268-.112.385.385,0,0,1-.094-.25Z" fill="#fff"/><path d="M278.2,679.185a.333.333,0,0,1,.233.087.245.245,0,0,1,.078.223c-.024.242-.038.489-.044.742s-.008.459-.008.62a10.1,10.1,0,0,0,.138,1.774,3.281,3.281,0,0,0,.508,1.311,2.288,2.288,0,0,0,1.034.809,4.509,4.509,0,0,0,1.715.276c.16,0,.309,0,.448-.009s.338-.025.6-.06q.018-.792.018-1.43V677.2a.3.3,0,0,1,.111-.232.381.381,0,0,1,.25-.1h1.948a.348.348,0,0,1,.241.1.3.3,0,0,1,.1.232v6.739q0,.723-.017,1.515c-.011.529-.029,1.017-.051,1.465,0,.2-.127.327-.38.4a13.451,13.451,0,0,1-1.611.275,15.571,15.571,0,0,1-1.68.087,9.576,9.576,0,0,1-2.524-.3,4.58,4.58,0,0,1-1.853-.973,4.172,4.172,0,0,1-1.145-1.733,7.512,7.512,0,0,1-.388-2.576c0-.126.006-.3.016-.517s.027-.448.044-.689.04-.482.069-.724.06-.453.1-.637a.534.534,0,0,1,.112-.258.343.343,0,0,1,.266-.087Zm1.206-5.307a.368.368,0,0,1,.121-.284.414.414,0,0,1,.293-.112h1.757a.365.365,0,0,1,.268.112.386.386,0,0,1,.112.284v1.637a.367.367,0,0,1-.112.267.385.385,0,0,1-.284.112h-1.741a.4.4,0,0,1-.3-.112.36.36,0,0,1-.113-.267Z" fill="#fff"/><path d="M288.208,686.681a.274.274,0,0,1,.31-.31h1.637a9.3,9.3,0,0,0,1.146-.06,2.457,2.457,0,0,0,.784-.216,1.008,1.008,0,0,0,.457-.431,1.8,1.8,0,0,0,.181-.689v-.413h-.931a4.448,4.448,0,0,1-3.084-.991,3.725,3.725,0,0,1-1.1-2.921v-.293a4.276,4.276,0,0,1,1.25-3.317,5.186,5.186,0,0,1,3.627-1.146q.327,0,.724.026t.758.06c.241.023.466.052.673.087a2.41,2.41,0,0,1,.482.12,1.245,1.245,0,0,1,.241.146.252.252,0,0,1,.069.2v5.359h1.5v2.671h-1.551v.534a4.459,4.459,0,0,1-.517,1.835,3.122,3.122,0,0,1-1.043,1.111,3.972,3.972,0,0,1-1.429.543,9.206,9.206,0,0,1-1.663.147h-.465q-.328,0-.681-.018t-.673-.034a2.33,2.33,0,0,1-.438-.052.3.3,0,0,1-.207-.12.427.427,0,0,1-.052-.224Zm1.964-6.376a1.9,1.9,0,0,0,.353,1.258,1.5,1.5,0,0,0,1.2.414h1.051v-3.653c-.127-.011-.258-.02-.4-.026s-.271-.009-.4-.009a1.744,1.744,0,0,0-1.343.5,1.916,1.916,0,0,0-.466,1.362Z" fill="#fff"/><path d="M296.789,684.562a1.435,1.435,0,0,1-.353-.052c-.132-.034-.2-.08-.2-.138V682.08c0-.057.067-.1.2-.137a1.39,1.39,0,0,1,.353-.052h2.653a1.238,1.238,0,0,0,.509-.069c.086-.046.129-.2.129-.465v-1.931c0-.734-.012-1.5-.034-2.291a.314.314,0,0,1,.1-.233.336.336,0,0,1,.25-.095h1.9a.387.387,0,0,1,.284.095.393.393,0,0,1,.113.233c.01.356.019.681.025.974s.012.568.018.827.007.519.007.783v.811q0,1.273-.016,2.058c-.012.524-.034.951-.07,1.284a.826.826,0,0,1-.111.293.518.518,0,0,1-.285.19,4.943,4.943,0,0,1-.577.1c-.247.029-.517.051-.81.069s-.594.028-.9.034-.592.009-.845.009Zm.672,1.844a.37.37,0,0,1,.121-.285.412.412,0,0,1,.292-.112h1.5a.445.445,0,0,1,.3.112.358.358,0,0,1,.13.285v1.654a.321.321,0,0,1-.138.25.461.461,0,0,1-.293.111h-1.5a.416.416,0,0,1-.292-.111.334.334,0,0,1-.121-.25Zm3.5,0a.351.351,0,0,1,.138-.285.453.453,0,0,1,.293-.112h1.5a.413.413,0,0,1,.293.112.373.373,0,0,1,.121.285v1.654a.338.338,0,0,1-.121.25.416.416,0,0,1-.293.111h-1.5a.457.457,0,0,1-.293-.111.321.321,0,0,1-.138-.25Z" fill="#fff"/><path d="M304.646,682.218a.3.3,0,0,1,.1-.232.34.34,0,0,1,.241-.1H309.3l-.034-1.224a4.207,4.207,0,0,0-.181-1.007,1.892,1.892,0,0,0-.466-.776,2.162,2.162,0,0,0-.852-.5,4.181,4.181,0,0,0-1.328-.181h-.491c-.109,0-.218,0-.327.008a1.986,1.986,0,0,0-.25.027c-.207,0-.31-.092-.31-.276v-1.62a.4.4,0,0,1,.086-.25.357.357,0,0,1,.258-.129,8.747,8.747,0,0,1,1.034-.112c.357-.018.621-.025.793-.025a5.079,5.079,0,0,1,2.214.421,3.946,3.946,0,0,1,1.4,1.1,4.162,4.162,0,0,1,.758,1.551,9.184,9.184,0,0,1,.276,1.766l.034,1.224h1.034v2.671h-7.961a.36.36,0,0,1-.241-.086.281.281,0,0,1-.1-.225Zm2.034-9.977a.373.373,0,0,1,.121-.285.416.416,0,0,1,.293-.111h1.757a.367.367,0,0,1,.267.111.391.391,0,0,1,.112.285v1.637a.365.365,0,0,1-.112.267.385.385,0,0,1-.284.112h-1.74a.405.405,0,0,1-.3-.112.361.361,0,0,1-.112-.267Z" fill="#fff"/><path d="M312.263,682.08c0-.057.066-.1.2-.137a1.4,1.4,0,0,1,.353-.052h.81a2.549,2.549,0,0,0,.293-.018.924.924,0,0,0,.275-.068.458.458,0,0,0,.2-.164.525.525,0,0,0,.078-.3V677.2a.318.318,0,0,1,.094-.232.363.363,0,0,1,.267-.1h1.947a.349.349,0,0,1,.242.1.3.3,0,0,1,.1.232v4.463a.36.36,0,0,0,.173.113,1.673,1.673,0,0,0,.267.069,2.66,2.66,0,0,0,.284.034c.092.006.173.009.241.009h.534v2.671H318.4a9.239,9.239,0,0,1-1.438-.112,2.643,2.643,0,0,1-1.2-.474,2.214,2.214,0,0,1-.56.284,4.938,4.938,0,0,1-.655.181,5.354,5.354,0,0,1-.672.1q-.336.025-.646.026h-.414a1.441,1.441,0,0,1-.353-.052q-.2-.051-.2-.138Zm.4,4.326a.37.37,0,0,1,.121-.285.413.413,0,0,1,.293-.112h1.5a.443.443,0,0,1,.3.112.358.358,0,0,1,.13.285v1.654a.321.321,0,0,1-.138.25.461.461,0,0,1-.293.111h-1.5a.416.416,0,0,1-.293-.111.334.334,0,0,1-.121-.25Zm3.5,0a.351.351,0,0,1,.138-.285.455.455,0,0,1,.293-.112h1.5a.413.413,0,0,1,.293.112.373.373,0,0,1,.121.285v1.654a.338.338,0,0,1-.121.25.416.416,0,0,1-.293.111h-1.5a.459.459,0,0,1-.293-.111.321.321,0,0,1-.138-.25Z" fill="#fff"/><path d="M317.932,682.08c0-.057.066-.1.2-.137a1.4,1.4,0,0,1,.353-.052h1.706a2.179,2.179,0,0,1-.414-.756,3.556,3.556,0,0,1-.155-1.117v-.275a4.129,4.129,0,0,1,.345-1.745,3.372,3.372,0,0,1,.973-1.245,4.155,4.155,0,0,1,1.508-.739,7.321,7.321,0,0,1,1.931-.24q.361,0,.783.025c.282.018.555.037.819.061s.511.054.741.093.414.079.551.113a.444.444,0,0,1,.25.137.375.375,0,0,1,.061.223v5.465H329.1v2.671H318.483a1.441,1.441,0,0,1-.353-.052q-.2-.051-.2-.138Zm7-.1v-3.825a6.455,6.455,0,0,0-.844-.052,1.584,1.584,0,0,0-1.81,1.774v.259a2.148,2.148,0,0,0,.379,1.37,1.475,1.475,0,0,0,1.224.474Zm-2.464-9.753a.37.37,0,0,1,.12-.284.416.416,0,0,1,.293-.112h1.758a.364.364,0,0,1,.267.112.382.382,0,0,1,.112.284v1.637a.364.364,0,0,1-.112.267.385.385,0,0,1-.284.112h-1.741a.4.4,0,0,1-.3-.112.364.364,0,0,1-.112-.267Z" fill="#fff"/><path d="M328.408,682.08c0-.057.067-.1.2-.137a1.4,1.4,0,0,1,.354-.052h.81a2.562,2.562,0,0,0,.293-.018.933.933,0,0,0,.275-.068.456.456,0,0,0,.2-.164.518.518,0,0,0,.078-.3V677.2a.318.318,0,0,1,.1-.232.36.36,0,0,1,.267-.1h1.947a.345.345,0,0,1,.241.1.3.3,0,0,1,.1.232v4.463a.356.356,0,0,0,.172.113,1.7,1.7,0,0,0,.267.069,2.691,2.691,0,0,0,.284.034c.092.006.173.009.241.009h.535v2.671h-.224a9.252,9.252,0,0,1-1.439-.112,2.652,2.652,0,0,1-1.2-.474,2.207,2.207,0,0,1-.559.284,4.954,4.954,0,0,1-.656.181,5.339,5.339,0,0,1-.671.1q-.336.025-.647.026h-.413a1.442,1.442,0,0,1-.354-.052c-.131-.034-.2-.08-.2-.138Zm2.24-8.943a.365.365,0,0,1,.122-.284.411.411,0,0,1,.293-.112h1.756a.365.365,0,0,1,.268.112.386.386,0,0,1,.112.284v1.637a.368.368,0,0,1-.112.267.385.385,0,0,1-.284.112h-1.74a.405.405,0,0,1-.3-.112.365.365,0,0,1-.113-.267Z" fill="#fff"/><path d="M334.078,682.08c0-.057.067-.1.2-.137a1.4,1.4,0,0,1,.354-.052h.809a2.536,2.536,0,0,0,.293-.018.931.931,0,0,0,.276-.068.456.456,0,0,0,.2-.164.518.518,0,0,0,.078-.3V677.2a.315.315,0,0,1,.1-.232.36.36,0,0,1,.267-.1h1.947a.345.345,0,0,1,.241.1.3.3,0,0,1,.1.232v4.463a.356.356,0,0,0,.172.113,1.675,1.675,0,0,0,.267.069,2.691,2.691,0,0,0,.284.034c.092.006.173.009.241.009h.535v2.671h-.224a9.243,9.243,0,0,1-1.439-.112,2.647,2.647,0,0,1-1.2-.474,2.207,2.207,0,0,1-.559.284,4.954,4.954,0,0,1-.656.181,5.328,5.328,0,0,1-.672.1c-.223.017-.439.026-.646.026h-.413a1.442,1.442,0,0,1-.354-.052c-.131-.034-.2-.08-.2-.138Zm.6-8.943a.37.37,0,0,1,.12-.284.413.413,0,0,1,.293-.112h1.5a.445.445,0,0,1,.3.112.361.361,0,0,1,.129.284v1.637a.336.336,0,0,1-.138.267.456.456,0,0,1-.293.112h-1.5a.413.413,0,0,1-.293-.112.354.354,0,0,1-.12-.267Zm3.5,0a.351.351,0,0,1,.137-.284.456.456,0,0,1,.293-.112h1.5a.413.413,0,0,1,.293.112.371.371,0,0,1,.121.284v1.637a.355.355,0,0,1-.121.267.413.413,0,0,1-.293.112h-1.5a.456.456,0,0,1-.293-.112.337.337,0,0,1-.137-.267Z" fill="#fff"/><path d="M339.747,682.08c0-.057.066-.1.2-.137a1.4,1.4,0,0,1,.354-.052h1.051a1.246,1.246,0,0,0,.5-.069c.091-.046.137-.2.137-.465v-9.651a.343.343,0,0,1,.1-.257.348.348,0,0,1,.259-.1h1.981a.327.327,0,0,1,.241.1.347.347,0,0,1,.1.257V681.77q0,.517-.027,1.059c-.016.363-.043.71-.077,1.043a.825.825,0,0,1-.112.293.523.523,0,0,1-.284.19,4.932,4.932,0,0,1-.6.1c-.258.029-.537.051-.836.069s-.608.028-.93.034-.609.009-.862.009H340.3a1.442,1.442,0,0,1-.354-.052q-.2-.051-.2-.138Z" fill="#fff"/><path d="M347.156,671.706a.365.365,0,0,1,.1-.257.341.341,0,0,1,.268-.1h1.964a.355.355,0,0,1,.362.361V684.2a.358.358,0,0,1-.1.25.334.334,0,0,1-.258.112h-1.964a.33.33,0,0,1-.268-.112.381.381,0,0,1-.1-.25Z" fill="#fff"/><path d="M356.651,684.2c-.2,0-.293-.092-.293-.276v-1.6a.259.259,0,0,1,.293-.293h.69a2.685,2.685,0,0,1-.38-1.585,3.647,3.647,0,0,1,.276-1.517,2.5,2.5,0,0,1,.749-.965,2.881,2.881,0,0,1,1.112-.509,6.019,6.019,0,0,1,1.344-.146,6.6,6.6,0,0,1,.792.043c.231.029.483.072.759.13.207.034.31.132.31.293v1.344q0,.293-.276.275c-.264-.011-.476-.02-.637-.025s-.317-.009-.465-.009a2.369,2.369,0,0,0-1.31.275,1.179,1.179,0,0,0-.4,1.034,1.76,1.76,0,0,0,.207.905,1.159,1.159,0,0,0,.447.474l2.551-.017a.259.259,0,0,1,.293.293v1.6c0,.184-.1.276-.293.276Z" fill="#fff"/><path d="M364.922,671.706a.354.354,0,0,1,.362-.361h1.965a.343.343,0,0,1,.267.1.364.364,0,0,1,.094.257v9.41c0,.333.07.545.207.637a1.207,1.207,0,0,0,.655.138h.637v2.671H367.68a6.191,6.191,0,0,1-1.129-.1,2.005,2.005,0,0,1-.87-.371,1.749,1.749,0,0,1-.561-.784,3.737,3.737,0,0,1-.2-1.335Z" fill="#fff"/><path d="M368.42,682.08c0-.057.066-.1.2-.137a1.4,1.4,0,0,1,.354-.052h.5a1.874,1.874,0,0,0,.559-.078c.166-.052.25-.209.25-.474v-3.36a.33.33,0,0,1,.113-.258.355.355,0,0,1,.249-.1h1.878a.333.333,0,0,1,.242.1.35.35,0,0,1,.1.258v3.774a.615.615,0,0,0,.413.2,3.5,3.5,0,0,0,.5.043h.207a1.8,1.8,0,0,0,.542-.078c.167-.051.25-.2.25-.456v-4.1a.292.292,0,0,1,.113-.233.376.376,0,0,1,.25-.094h1.9a.378.378,0,0,1,.25.094.3.3,0,0,1,.111.233v4.394a.542.542,0,0,0,.388.2,3.612,3.612,0,0,0,.543.043h.293a1.237,1.237,0,0,0,.509-.069q.129-.069.129-.465v-2.206q0-.638-.009-1.3t-.025-1.25a.338.338,0,0,1,.086-.223.316.316,0,0,1,.258-.1h1.9a.391.391,0,0,1,.284.1.318.318,0,0,1,.1.232c.034.748.054,1.425.06,2.035s.008,1.206.008,1.792v1.188c0,.345,0,.7-.008,1.052s-.026.706-.06,1.051a.856.856,0,0,1-.113.275.594.594,0,0,1-.284.207,8.031,8.031,0,0,1-2.119.224h-.173c-.207,0-.425-.005-.654-.017a5.823,5.823,0,0,1-.7-.078,5.629,5.629,0,0,1-.69-.163,2.254,2.254,0,0,1-.611-.293,2.57,2.57,0,0,1-1.017.456,5.371,5.371,0,0,1-1.172.13h-.172a5.963,5.963,0,0,1-1.275-.121,2.958,2.958,0,0,1-1.052-.465,2.665,2.665,0,0,1-1.127.465,7.147,7.147,0,0,1-1.285.121h-.43a1.442,1.442,0,0,1-.354-.052q-.2-.051-.2-.138Z" fill="#fff"/><path d="M384.549,686.681a.273.273,0,0,1,.309-.31H386.5a9.315,9.315,0,0,0,1.146-.06,2.457,2.457,0,0,0,.784-.216,1.006,1.006,0,0,0,.457-.43,1.634,1.634,0,0,0,.163-.689l.017-.637a.67.67,0,0,1-.25.112,3.02,3.02,0,0,1-.353.068c-.126.017-.25.028-.37.034s-.222.009-.3.009a3.525,3.525,0,0,1-3.843-3.912v-.293a4.276,4.276,0,0,1,1.25-3.317,5.184,5.184,0,0,1,3.627-1.146q.327,0,.724.026t.758.06c.241.023.466.052.673.087a2.41,2.41,0,0,1,.482.12.926.926,0,0,1,.249.146.271.271,0,0,1,.061.2v7.892a5.18,5.18,0,0,1-.4,2.223,3.31,3.31,0,0,1-1.068,1.309,3.791,3.791,0,0,1-1.508.621,9.566,9.566,0,0,1-1.724.155H386.6q-.328,0-.681-.018t-.673-.034a2.33,2.33,0,0,1-.438-.052.3.3,0,0,1-.207-.12.418.418,0,0,1-.052-.224Zm1.912-12.355a.325.325,0,0,1-.181-.051.177.177,0,0,1-.077-.156v-.637a.122.122,0,0,1,.077-.121.446.446,0,0,1,.181-.034h.345a1.666,1.666,0,0,1-.2-.474,2.173,2.173,0,0,1-.059-.509q0-1.48,1.758-1.481c.1,0,.243.006.422.016a2.438,2.438,0,0,1,.507.087c.116.023.173.08.173.172v.586c0,.115-.075.172-.224.172h-.637a1.079,1.079,0,0,0-.612.139.565.565,0,0,0-.2.5,1.2,1.2,0,0,0,.086.474.577.577,0,0,0,.241.284h1.259c.172,0,.258.058.258.172v.655q0,.207-.258.207Zm2.654,4c-.127-.011-.256-.02-.387-.026s-.268-.009-.406-.009a1.734,1.734,0,0,0-1.352.5,1.955,1.955,0,0,0-.457,1.368v.156a1.915,1.915,0,0,0,.353,1.263,1.5,1.5,0,0,0,1.2.416q1.053,0,1.052-.45Z" fill="#fff"/><path d="M393.112,686.718c0-.209.11-.312.328-.312h.4a4.11,4.11,0,0,0,.559-.035.813.813,0,0,0,.422-.18.874.874,0,0,0,.259-.431,2.782,2.782,0,0,0,.086-.782V677.2a.294.294,0,0,1,.112-.232.381.381,0,0,1,.25-.1h1.948a.348.348,0,0,1,.241.1.307.307,0,0,1,.1.232v4.688h1.5v2.671h-1.568v.638a7.611,7.611,0,0,1-.077,1.145,3.008,3.008,0,0,1-.268.888,2.469,2.469,0,0,1-1.093,1.145,3.944,3.944,0,0,1-1.785.354h-.214c-.1,0-.205,0-.32-.009s-.226-.015-.336-.025-.2-.024-.266-.036a.313.313,0,0,1-.277-.347Z" fill="#fff"/><path d="M398.627,682.08c0-.057.066-.1.2-.137a1.4,1.4,0,0,1,.354-.052h1.05a1.239,1.239,0,0,0,.5-.069c.092-.046.138-.2.138-.465v-9.651a.343.343,0,0,1,.1-.257.347.347,0,0,1,.258-.1h1.982a.327.327,0,0,1,.241.1.347.347,0,0,1,.1.257V681.77q0,.517-.027,1.059c-.016.363-.043.71-.077,1.043a.826.826,0,0,1-.112.293.523.523,0,0,1-.284.19,4.932,4.932,0,0,1-.6.1c-.258.029-.537.051-.836.069s-.608.028-.93.034-.609.009-.862.009h-.654a1.442,1.442,0,0,1-.354-.052q-.2-.051-.2-.138Z" fill="#fff"/><path d="M406.036,671.706a.365.365,0,0,1,.1-.257.34.34,0,0,1,.267-.1h1.965a.355.355,0,0,1,.362.361V684.2a.363.363,0,0,1-.1.25.334.334,0,0,1-.258.112H406.4a.329.329,0,0,1-.267-.112.381.381,0,0,1-.1-.25Z" fill="#fff"/></g></svg>